<mxfile host="app.diagrams.net" agent="Mozilla/5.0 (Macintosh; Intel Mac OS X 10_15_7) AppleWebKit/537.36 (KHTML, like Gecko) Chrome/137.0.0.0 Safari/537.36" version="27.1.4">
  <diagram name="Page-1" id="dDPnRDvD5NaMa1TglhB9">
    <mxGraphModel dx="1234" dy="790" grid="0" gridSize="10" guides="1" tooltips="1" connect="1" arrows="1" fold="1" page="1" pageScale="1" pageWidth="850" pageHeight="1100" math="0" shadow="0">
      <root>
        <mxCell id="0" />
        <mxCell id="1" parent="0" />
        <mxCell id="a3eMfUXtKI3ahD6i4PhR-45" value="" style="rounded=0;whiteSpace=wrap;html=1;fillColor=#f5f5f5;fontColor=#333333;strokeColor=#666666;" vertex="1" parent="1">
          <mxGeometry x="138" y="160" width="371" height="746" as="geometry" />
        </mxCell>
        <mxCell id="a3eMfUXtKI3ahD6i4PhR-44" style="edgeStyle=orthogonalEdgeStyle;rounded=0;orthogonalLoop=1;jettySize=auto;html=1;exitX=0.5;exitY=1;exitDx=0;exitDy=0;entryX=0.5;entryY=0;entryDx=0;entryDy=0;strokeWidth=2;" edge="1" parent="1" source="a3eMfUXtKI3ahD6i4PhR-39" target="a3eMfUXtKI3ahD6i4PhR-38">
          <mxGeometry relative="1" as="geometry" />
        </mxCell>
        <mxCell id="a3eMfUXtKI3ahD6i4PhR-39" value="" style="rounded=1;whiteSpace=wrap;html=1;strokeWidth=2;" vertex="1" parent="1">
          <mxGeometry x="159.5" y="661" width="256" height="110" as="geometry" />
        </mxCell>
        <mxCell id="a3eMfUXtKI3ahD6i4PhR-38" value="" style="rounded=1;whiteSpace=wrap;html=1;strokeWidth=2;" vertex="1" parent="1">
          <mxGeometry x="220" y="827" width="135" height="64" as="geometry" />
        </mxCell>
        <mxCell id="a3eMfUXtKI3ahD6i4PhR-43" style="edgeStyle=orthogonalEdgeStyle;rounded=0;orthogonalLoop=1;jettySize=auto;html=1;exitX=0.5;exitY=1;exitDx=0;exitDy=0;strokeWidth=2;" edge="1" parent="1" source="a3eMfUXtKI3ahD6i4PhR-28">
          <mxGeometry relative="1" as="geometry">
            <mxPoint x="285" y="654" as="targetPoint" />
          </mxGeometry>
        </mxCell>
        <mxCell id="a3eMfUXtKI3ahD6i4PhR-28" value="" style="shape=image;html=1;verticalAlign=top;verticalLabelPosition=bottom;labelBackgroundColor=#ffffff;imageAspect=0;aspect=fixed;image=https://cdn0.iconfinder.com/data/icons/phosphor-thin-vol-3/256/hexagon-thin-128.png" vertex="1" parent="1">
          <mxGeometry x="211" y="446" width="148" height="148" as="geometry" />
        </mxCell>
        <mxCell id="a3eMfUXtKI3ahD6i4PhR-21" value="" style="rounded=1;whiteSpace=wrap;html=1;strokeWidth=2;" vertex="1" parent="1">
          <mxGeometry x="224" y="293" width="122" height="115" as="geometry" />
        </mxCell>
        <mxCell id="a3eMfUXtKI3ahD6i4PhR-40" style="edgeStyle=orthogonalEdgeStyle;rounded=0;orthogonalLoop=1;jettySize=auto;html=1;exitX=0.5;exitY=1;exitDx=0;exitDy=0;entryX=0.5;entryY=0;entryDx=0;entryDy=0;strokeWidth=2;" edge="1" parent="1" source="a3eMfUXtKI3ahD6i4PhR-18" target="a3eMfUXtKI3ahD6i4PhR-21">
          <mxGeometry relative="1" as="geometry" />
        </mxCell>
        <mxCell id="a3eMfUXtKI3ahD6i4PhR-18" value="" style="ellipse;whiteSpace=wrap;html=1;fillColor=#d5e8d4;strokeColor=#82b366;strokeWidth=2;" vertex="1" parent="1">
          <mxGeometry x="226" y="175" width="120" height="80" as="geometry" />
        </mxCell>
        <mxCell id="a3eMfUXtKI3ahD6i4PhR-1" value="" style="shape=image;verticalLabelPosition=bottom;labelBackgroundColor=default;verticalAlign=top;aspect=fixed;imageAspect=0;image=data:image/png,iVBORw0KGgoAAAANSUhEUgAAAMgAAADICAYAAACtWK6eAAAAAXNSR0IArs4c6QAAAERlWElmTU0AKgAAAAgAAYdpAAQAAAABAAAAGgAAAAAAA6ABAAMAAAABAAEAAKACAAQAAAABAAAAyKADAAQAAAABAAAAyAAAAACbWz2VAAANpElEQVR4Ae2dDZKbyg6Fk9TdV5SVWXdlMCvL08kzVcQXYyS6odV9VNXBBv0cfY0GTzJJvn2jkQAJkAAJkAAJkAAJkAAJkAAJkAAJkAAJkAAJkAAJkAAJkAAJkAAJkAAJkAAJkAAJkAAJkAAJnCXw/WyCnXh5XluOO668RAKnCMwWjdW8iSmcbP3mIoMb7gG1ms0aB4NfGFr5wqgtTYmYGA4Hh6OV4VjrwL15ys5+DyJWHcNBI4FWCfwyYXNU3NkBwbTSSKBlArOJw5CE7Eco6v9BeiKWoSRwFQGxQuFPOWeeIHx6XLXFrFOCQOijVvQJoiUUMwcJXEjgEakVfYLw6RGhzZi7Cbjv98gTRO7ukvVJIEhAvHEcEC8x+g9FIDIgQwFis10REG83/3gDgv7uz37BOgwbi0D174X5BBnrhmK3TgIcECcwuo9FgAMy1n6zWycBDogTGN3HIsABGWu/2a2TAAfECYzuYxHggIy13+zWSYAD4gRG97EIcEDG2m926yTAAXECo/tYBDggY+03u3US4IA4gdF9LAIckLH2m906CXBAnMDoPhYBDshY+81unQQ4IE5gdB+LAAdkrP1mt04CHBAnMLqPRYADMtZ+s1sngav+TrpT1mF3eXqG/lGww1XoGCHw9QzSSHDmGDSMvyzvWTX6jejwaKavb4/3eGGvatheza1r6hWR9SMWGn14m6X/bQSwV9Nt1U8Uzjggav1yOE5s+k2hYnWxUlnGAeFwpLrF/hKbbu8yDshfxPkmFQFJpdbEZhuQdICz3RAX6E21h9kGZL5gA1miLoFUe5htQLB1qQBDMC0vgYwDsvwBVF7q4yr/N1vrGQdEDfKcDTT1fsNwaDYOGQcEjH/ZSvfVKNvNUVBvyuFA/5l/FktXG/hz9Zov2yHwZVLm52pHlUNJ5gFBm+rola4k4CaQ9SOWu1EGkECEAAckQo0xwxDggAyz1Ww0QoADEqHGmGEIcECG2Wo2GiHAAYlQY8wwBDggw2w1G40Q4IBEqDFmGAIckGG2mo1GCHBAItQYMwwBDsgwW81GIwQ4IBFqjBmGAAdkmK1moxECHJAINcYMQ4ADMsxWs9EIAQ5IhBpjhiHAARlmq9lohAAHJEKNMcMQ4IAMs9VsNEKAAxKhxphhCHBAhtlqNhohwAGJUGPMMASy/7M/w2yUo1FZ+eL1+t8Mw79Ttdj8fLEcl/M8rgj0MCDy7Gc5rto79VJPRV8TLFZm+U9p8PqTycphiVtOzfYCA6S2aCcIqMX+dq4T5d6Gil2ZbHm1ePzV8rdmYoJq9w1GaktstWyevVx6qt6PWgWvsNKiIhq8mtf+UroBZz7Un2ytNV35Wq12i+ZloFc0gSJeYSV1SaC+V++r/1SyAUcu9Irar3rueq+mpSXzclCv+Iy/iyXeJgv4o6YWyHM0hZgjBgMLr1uxhwnBTamtCGpRB+AAkmeV7MNTt6TvVLKJnVxq10rqrpkLWu80b2/qFZvtCSLeBgv6166N/Njwh60sBq1TFrERndkGJNJjhhg1kVlvNDHtv23h2J1lG5D5xh3A/5JUw9SS4itxdsOAa/YmXvVnGxDor3WjvrK54j1uqh6GY2GFXnR5M+oRAH47V2lWuLG8Gs74a+EGxPJd3cOZ/r2xpXm9w9+kLjTvFfauweh5scDJlldHxB91SppYsoiOMzHoAetMDm8s6tU2ryatLQj5UcQrDHE1TC0pNsKr54g/8oqt0nakdsQHehfNckA0fPS5IvWOxEBPTTuiYe2jNcUsuVFkXfTI6yV29GOE3R7fyYDKc9nhlIlFq629epFryFnLvHq0lpB1XhTxClvHj/o6wu0d58kgSkWQJbWiB+SrYe/4vDuvNUS85kSRdwLenX/NMdr7CLMtlpOBkwvhldKNXmro3mK0dw79VDe1Cnsitq5VF9VwgQivLYZyY4+leijdwhanvXPoo7qpVdgTsXWtuqiGC2zx8JybrDdpoD81DR7dW77opaRt1dg7pyWLv8uFInsitq69y9X7+QirNb+pMUBietb6Iq+Ro5R562upwnt5UMQrbC9fz9e8nNb+4NyqTSZsrdXzGrGlzFMXvuot/MMbQP/DBPSw538d8eM0Z+L/m7HsmV+Wbg6mFIvD6tbUOvNObrcwdhrzMlr8wTeLLZq9x6lQg9666q3LJ4iX2DF/90Y80852jMY+U1x6wJMkYmJBGgnMEIPGvJOboa9SGiN8Fp5SSsSFec70e1bmwu3oEVpdxieIC1dVZ3zfMVetUCe5Wto5mFqCcU2Hqak7OrGLX9MNFRa39Ow9FpZxaTqxat5+4T+dVOmtqd56fIJ4ie37uzfgmQ5Pj8w2m/hID9J60xyQ+3cIN5beL+O0gmgPcrpyxQQckLJwH2XTpcsWeYp0x0xt27yf/dLtdECwBLhMgTqth3jvDfhHzVtLvYX4BPESe+8v7y+9vfL19kreC3NAugRiLgnhgJTD/AikmgMxrYd09TGLA3Lv7dbjgNxLtHB1DkhhoI50ka+0jvS3uc5WGasL44CU2UYJpJkDMVlCvN9bSauNcUBa3RnqaoIAB6TMNkggzRyIyRIS6U1abI4D0uKuUFMzBDggzWwFhbRIgANSZld+OtPMTv9s7pH+pMUmOSAt7go1NUOAA1JmK7r5bc0yOL5JoTy3p+GA3L4FFPAkMLdIggNSZlcimytlSjeZpZveOCBN3l9Dippb7JoD0uKuUFMzBDggZbZiDqSJ/Hh8oMwtId30xgG55f75U1TuK121cqSvZn+ymQNS7l6ZA6kiN1OgzKUhXfXEASl370S+CnbzUWSF0ftTBQidV/FNveSANLUdXYiRQBdzIOaSEA5IOczYZCyPiTlj9WIaaCTy5A2UiYVwQGLcSkb19DGrp17+7DEHpOStHv/nN7WsjFuyRXuIxt3S5JGiaOi3cx3J24uPl83in7l/NfFLH54j4s6YpxZ81VuMTxAvsc/+82eXTQ/dPNv3ybnH9tSa8k5ujxze9SQBPgtPxGYzNcGLfs9xKtCopx58odVlfIK4cB1yns0r+jszuGnEVhZTE/oIiv0KxjUfpqbQO7nNN1VBoJfR4j9V0FIjpVjSRXPkWEKTt656i/IJ4iV23D/6FBEr0fqQnNUYZfNKf3490cJ7NRHeyW1B9x0acKN7WS3+iG3RxEQtGiNHLdgUGHk0FCz9PpU6RaGBUU2scc8GbvkiRyumJmRLo+dcyV7EoUdLFt7LhUIeIPAd2SZr3svr1V8bAAgNr7q872v0cVSXyb/G1Mp4wVyjrM0qEuC1xVdvag/6J1tbmrznarWgO/qgXWxdZmqVWgFzWdMnC0mA2TvGelLL0XAxR9xc73REzqvlq2ViidUWNC9L7PXlplbRC+dykQ0WjHDb44x8NUwsKW6wvdpnrqnl7trUuvMC6hqIo7kIu0+skRPrjIkFq63J1qd6Ja6jVgr7HlCpFvNwxkXqOEukccdNKJXUzpb3a5Ub72Hzn1//rit27ufG+eep6gf8WYhWr3JDATTl/Spyg8ymS2JIvAx79Nemd8nE8U/S79mhX1YWX0FHt4cB0N4goCHvV7PeGJTqJ8LSyz6DPzh0Y2qdeKF303yFRiI8vfwz+INDF6bWhRd4F41XbEICTL17UNN/KqRfLU96U+vACzt90xc1EGHr3YvS/tAMU1slciNPalNT7wWRuuGLxYPvZMvL+Gp/aBRba1N7U0IH8qQ1NeVeCGmbvVF4hLN3XyL+kzGRHS6ldCNPSlNT7QWbstFGREd4e/fniP+nwVjjKqUZedKZmuIjQNc+6ZpsUDC44yZdc73iNWqKLa+pBZTQhzypTE2tt/FUDSYQiz3A8u7DUf/Jcouts6aW4GjNPT/kSWNqSvea2bqWprmEQrEfWNNzbfH/dA6x8lx2KGpq2T7VP3IdeS63fy6vyIKlCeibhPI8vxzxdsYvK5tXr2u91Gfix8kCS/yS72S6euEQeGTi1z711DBzFgJqQtf3RPQ18jRtauq8zTXdEMVdRkCtkvfe2fJHnmZNTdmW6L1zzTZDYZcTUKu4d68cvYY8TZqaqqNNLH5NNkJRtxFQq7zcG2eOyNOcqSnyNtVcExR0OwE1Bd77aMtfbu/kRYDa+y2he+deUvAtCfwhoPbr3n1z9Fo1nD+qZWZiEvhMQM2lxN+snD6XinlwQGLcGFWOgFqqEkNSTtHJTGjo6KNv8TtZkuEDEFDrcblfIscqiPgEqYKVSQME1GKae5JwQAI7yZBqBNQyR4ZkrqWIA1KLLPNGCagFeofkK1rsU9xVP6yIz5S0fgjM1gpuShyxSps+Ez4OJJ7NRw/4XeYiVinyTRRj+uSmFe885N67bya7LraaMjE1e6J5bTw+WvkORX4Mw3Jv4TXOVbfvwQoQSiOBNYFf9mZen+jhdfSb9O5A9LCZN/cgN9evUj46IP9WUcOkmQn8zCz+nfbogMyWEItGAl0TiA4IoHT5mbPr3a7b3Ffd9PdkPzMgUMyPWvfsG6smIiCmdfntNx7HZDElul9vk6oclGG/UMhtd13Cwmqa+SQZg0H3T47vFQdQLDcWrT8C87Ol5dhfh+yIBEiABEiABEiABEiABEiABEiABEiABEiABEiABEiABEiABEiABEiABEiABEiABEiABEiABEigGIH/AZ7LjzMqIBd7AAAAAElFTkSuQmCC;" vertex="1" parent="1">
          <mxGeometry x="246" y="195" width="40" height="40" as="geometry" />
        </mxCell>
        <mxCell id="a3eMfUXtKI3ahD6i4PhR-2" value="" style="shape=image;verticalLabelPosition=bottom;labelBackgroundColor=default;verticalAlign=top;aspect=fixed;imageAspect=0;image=data:image/png,iVBORw0KGgoAAAANSUhEUgAAAMgAAADICAYAAACtWK6eAAAAAXNSR0IArs4c6QAAAERlWElmTU0AKgAAAAgAAYdpAAQAAAABAAAAGgAAAAAAA6ABAAMAAAABAAEAAKACAAQAAAABAAAAyKADAAQAAAABAAAAyAAAAACbWz2VAAAJsklEQVR4Ae2dTXqcOBBAob9ZZpbJ3CHJHdI+mZ2T2bnDJHfIeGmvm5FIt9y03AKEoKtUzxvzK8SreghoEE3DHwQgAAEIQAACEIAABCAAAQhAAAIQgAAEIAABCEAAAhCAAAQgAAEIQAACEIAABCAAAQhAAAIQgAAEIAABCEAAAhCAAAQgAAEIQAACEIAABCAAAQhAAAIQgAAEIACBkgTakoWtVdbL89d923T3ofyu24dhiwNt+/Th4887i7u+9T6LFuTl9+eHtm3exNiajuTtIckm0REpSGgxrLcUYymAJGOEFs8XJ0gvR3d4XLxnVgpAklUjvVu19IzCW+SYR821sq/PXzigzKM2eWlRgvhrjsk1Z8E3AkjyxqLwkJhTLC7IC0SW060CEIdFiGpBhlVjbDYBWpLZyMZWENOCvP73uRurLPMnEqAlmQhqfDERLQjXHuOBmrUELcksXKmFRQiSqiDzMgkgSSa44Wp/DUcVj7nTCsW1T1fdJXt6gStzj5LwWMoVPhMmqxek65rvf//z62HCvqpdZNEdPiRZFHe9p1iuxeja3V3tcvjo+n30B4LsSHO6lY1OrSBd037/++O/T9l7rmxFJLlNwFQK0p9WGZLjlBpIciKx3X+VgmyHR96W+lPKJTckON2aFVSVgvRJMms361q4O3Q/Fu0RkkzGp1KQyXvHgtcJIMl1NmdzEOQMhrlBJBkNOYKMIqp8ASRJBhhBkniMzESSq4FGkKtojM1AkncDjiDvYjE6EUmiwCNIhMT4BCQZJACCDHAw0hNAkpAICBJQMDAggCQ9DgQZZAUjAwJI0iDIICMqHeHZrezAIkg2Oj0r+lcDeJ8kL14IksdN3Vo8Kp8XMgTJ46ZyLSSZHzYEmc9M9RpIMi98CDKPVxVLI8n0MCLIdFZVLYkk08KJINM4VbkUkoyHFUHGGVW9BJKkw4sgaT4m5iLJ9TAjyHU2puYgyfvhRpD3uZiciiRx2BEkZmJ6CpIMw48gQx6MOQJI8pYGCPLGgqEzAkjyBwaCnCUFg0MCSNLwPsgwJRi7JGBdEvUf0LkMKOMxgbY7PLqPpMYztppyfDNR45euOMXaKkmsb0fp67sIYj1xt9x/hZIgyJYJwraaRpkkCELSbk9AkSQIsn16sEVPQIkkCKIxXXe7J43VjuqsQBIEiaImf0JVX/cVLgmCyPfh/Rou6Qzu/RJvN1WwJAhyu7RYtGXfGdyiAqStLFQSBJGWKBPr40+zunZ319CSTCSWt5jJR01enr/u83AtX6vk9cOxrKeX358ffM3aXftteQ0LleBahKySji2JlMdS2qydKLySD3DbNvdTi/3w6VdWveduZ2p9cpbzfeX6BwFz1tWwzlLWvnUseTDJZWbmFOv1+cvjHAlzgU5dz9fF12nq8tqWW/wUsJAdNiFIfwqS2+SvGShXp75ua27jhmXXIIkJQSS1HJf56ut2y2uiy/qUHu9PIxXfSKhekJqTr3Qyr1We5lvS1QvSHA77tQJfrFwNdVyws/3FttJWpH5BanluaUGCsmo+geoFkXCrcDQ8BiTuDt2PUQ4CF6heEM980ff5Vg5a/3uI+1V85c1QfCYBE4KIvZPizsv7umUGj9XWJ2BCEI/RP7ogqSXxdZHyOMX6aaZ3C6aexToerR/6W7+3unPkrjdUXBfpzemiNTclyIncMUGfTuP8h8A1AmZOsa4BYDoEUgQQJEWHeeYJIIj5FABAigCCpOgwzzwBBDGfAgBIEUCQFB3mmSeAIOZTAAApAgiSosM88wQQxHwKACBFAEFSdJhnnoC5R038c1ht003uYsh8hjgAp3c5LD55bEaQIEan4BVcYVa6jiX2vkruO4f3/fsrFffndYnezCmW/5Cl/ybFJQDG5xGovReWSxomBKm576nLgG4x3h9sttiQgG2YEERyv1gCciCrCla6U6peECuBzMryJSvd6oWzJXXOWLd6QTKYsAoEAoHqBeH11hDrsgMGuirywKoXpM8Kpb36lc3osqVZOfCYEERz37Bl07pMaZJ6hymzR9dLMSGIP9pZCur1cC+fY+2HQjO/pIcufyR+rmx53q5eQv+4ie+y6JOtXiDNCHLKIIvPE532nf/zCZg4xZqPhTUg8IcAgpAJEEgQQJAEHGZBAEHIAQgkCCBIAg6zIIAg5AAEEgQQJAGHWRBAEHIAAgkCCJKAwywIIAg5AIEEAXOPmngW4S1DI2/FJeI/bZbhz8aZEsR33tC/n94d/iRGOy0/zC/VHe5dlz/957StPctm5hQryGE+2/MB+IOLE6XLL0HfmiYEQY6yifn6/OWxbIlySzMhCN3+FE5A1wFfuI4rXLS04qoXxEogpSVWLfWpXpBaAiVuP4zcAUQQcZlHhSQRqF4QK93TbJ5U9Iu1OfLVNkiPJmXR9j2buJ5iypYqs7TqWxCP3f+4hSSFEtB1wmfpx0ITgiBJGTn8QebDx593ZUrTUYqpR02OR74HHxpu/85LUKvXcqYEOU8JqwE/Z8DwOAEzp1jjKFgCAjEBBImZMAUCgQCCBBQMQCAmgCAxE6ZAIBBAkICCAQjEBBAkZsIUCAQCCBJQMACBmACCxEyYAoFAAEECCgYgEBNAkJgJUyAQCCBIQMEABGICCBIzYQoEAgEECSgYgEBMAEFiJkyBQCCAIAEFAxCICSBIzIQpEAgEECSgYAACMQEEiZkwBQKBAIIEFAxAICaAIDETpkAgEECQgIIBCMQEECRmwhQIBAIqBaFPqxA/BlYmoFKQxkjX+yvHftPitX7ESKUg7a79tml02dgiAv4TeIsKuOHKKgVxn1vda4Z+w3jfZNNaWw8PS6cgruIeOpLcJN8nb9RfK2r/4Kfqvnm9JO6zxPd82mByzm6yYDgF7g77TTa44kZUC3LiorkJP+1DVf/dEWvpn5TOxWWcYhn5nNfSpGH97QnIEGT7/WaLkgm4r1hJqZ4IQfrmVBAUKcGxWo/u0P2Qsu8iBPEwJEGREhyr9ZD0DUQxgkiCYjUxJey3tDuSYgTxwenanakPREpISFF1EPgFXVGC+GsRaUcQUQlUeWW6pv0ubRdFCeLh+FMtJJGWJivXx7Uc/uxBym8f53vbno9IGvaPkfS/yLrnriTVi7oUJuDkkPztdbGCnMJwet6KX8tPRCr4f7yl70+pJLYa54TFC3JeWV6UOqehd1i6FHrJUnMIQAACEIAABCAAAQhAAAIQgAAEIAABCEAAAhCAAAQgAAEIQAACEIAABCAAAQhAAAIQgAAEIAABCEAAAhCAAAQgAAEIQAACEIAABCAAAQhAAAIQgAAEICCEwP8ZdvpRY++9rQAAAABJRU5ErkJggg==;" vertex="1" parent="1">
          <mxGeometry x="244.5" y="302" width="35" height="35" as="geometry" />
        </mxCell>
        <mxCell id="a3eMfUXtKI3ahD6i4PhR-3" value="" style="shape=image;verticalLabelPosition=bottom;labelBackgroundColor=default;verticalAlign=top;aspect=fixed;imageAspect=0;image=data:image/png,iVBORw0KGgoAAAANSUhEUgAAAMgAAADICAYAAACtWK6eAAAAAXNSR0IArs4c6QAAAERlWElmTU0AKgAAAAgAAYdpAAQAAAABAAAAGgAAAAAAA6ABAAMAAAABAAEAAKACAAQAAAABAAAAyKADAAQAAAABAAAAyAAAAACbWz2VAAAJu0lEQVR4Ae2dbXabOBRAwWfa2UPSBTTdRJOVJV1Z0k1MZgHT7qHNOWYQjRRsxSDE13t6tz8aDEKW7nsXYYxFVfEPAhCAAAQgAAEIQAACEIAABCAAAQhAAAIQgAAEIAABCEAAAhCAAAQgAAEIQAACEIAABCAAAQhAAAIQgAAEIAABCEAAAhCAAAQgAAEIQAACEIAABCAAAQhAAAIQgMCSBOolK1urrk8vn2+bqr739TdNdeuXLf6t6+rpx4fnO4t937rPogW5+vXloaqbIMbWcCS/H5JsEx2RgvgRw/pIMZYCSDJGaP52cYI4OY5N/Ti/azZqQJJ143xYt/rptSPHNGZulL1+ueGAMg1bcmlRgnSfOZKbTkFPAEk8ieX/ijnF4gP5/OByujWf4XkNokaQ88bxehoBRpJpvFJKyxlBft80KQ2mzDgBRpJxRqklRIwgfPZIDVdaOUaSNE4ppUQIktJQykwjgCTTeF0q/delDdrWu9MKbW1Oba9L9tSy/XJeEm5L6VOZtqxfkKb+9vPvfx6mdVtX6TlX+JBkXqzVnmK5EeNQN3ely+HC2/WxPRDkhtpLkru/5f30ClI13/778O+TleAhyT6R1ilIezS1JIdPDSTxJLb7q1OQ7fiIeycnyZwLEpxuTQupSkG6I+m0fhZVujnW3+d0CEnS6akUJL17lLxEAEkukTldjyCnPEy9QpLxcCPIOKOiSyDJcHgRZJiPia1IcjnMCHKZjaktSPJ+uBHkfS4m1yJJHHYEiZmYXoMkp+FHkFMevGoJIMlbGiDIGwuWegSQ5A8MBOklBYunBJCkqhDkNCeKfMW9W/lhRZB8dmr2rNufBlT8niQrXgiShU3fTtwqnxczBMnjpnIvJJkeNgSZzkz1HkgyLXwIMo1XEaWRJD2MCJLOqqiSSJIWTgRJ41RkKSQZDyuCjDMqugSSDIcXQYb5mNiKJJfDjCCX2ZjagiTvhxtB3udici2SxGFHkJiJ6TVIchp+BDnlwauWAJK8pQGCvLFgqUcASf7AQJBeUrB4SgBJ+D3IaUbwKiJgXRL9D9CJQsqKcwLHpn68+n1zvnrC63nPV/W/TNT4pCtOsSakCUXzCXhJ8mvYZ08E2Ye7yXfVKAmCmEzV/TqtTRIE2S9XzL6zJkkQxGya7ttxLZIgyL55kvXuh8PxKWtHYTtpkARBhCVNSnNKeoCpdEkQJCUjBZaZMxmctO5IlgRBpGVLYnu6yeASy2ooJlUSBNGQPe+00Z1mHermjpHkHTgLrjJ5q8mnl8+3CzKcVNWSnx9e63q6+vXlwTWiPjRfJzVmxcJuRMip3o8kUm5LqXM6sfQ+XYDr5j613p8fn7PaPfV9UtuTVa6dK7e7ETBrZ/k7zWXtRsclDya5xMycYl2/3DxWEyTMBZq8X9uWrk3JO+gqOPcuYCm9NSGIO5rlDvlrBsq1qTvSrvkmO9ZdgiQmBBE1cpwnbDuS7PmZ6Lw5S792kmi+kFC8ICUn39LJvFZ9mi9JFy/I8Xi4XSvwS9WroY1z+uo+bGsdRYoXpJT7luYkKPvmEyheEAmXCsfCY0Hi5lh/H+MgcXvxgnTQZzyfb/WgtW3TIPHqHIS+gQlBpF5Jcefl3aVQoclBswxN+9PduiBpJGnbIuV2CkS4TMDUvVivR+sHd+l3rytH7vMGp1SXE1LaFlOCePivCfrkX/MXApcImPgMcqnzrIfAGAEEGSPEdtMEEMR0+On8GAEEGSPEdtMEEMR0+On8GAEEGSPEdtMEEMR0+On8GAEEGSPEdtMEEMR0+On8GAEEGSPEdtMEzN1q4u7Daqo6eYoh09nx2nn/Ww6Ldx6bEcSLccyc0My0KHVz6/rfPufwvmrvQrYkiplTLPcgS4lT/6gTr/BZWM7jYUKQkueeOg/oFq/dwWaL95HwHiYEET0vloQsyGiDlemUihfESiAzcnzWLnv94GxWozN2Ll6QDCbsAoFAoHhB+HlriPWiCxamKnLAihfEdVLrrH6u7VL/WTnw2BCkar5JTTSV7ZI0O8zKAE0I0h3tDAV11Zwx9kWhmW/S/ZQ//jsRSY8rWzWhF6rc3W7STVn08flpoSpVVGNGEB8NS7dJ+D7zN5+AiVOsfDzsaZ0AgljPAPo/SABBBvGw0ToBBLGeAfR/kACCDOJho3UCCGI9A+j/IAEEGcTDRusEEMR6BtD/QQIIMoiHjdYJIIj1DKD/gwTM3WriaPhfGVr5VdxgBiRstPzYOFOCdDcqtrNytFP//PlX+4WELDFcpJ2k4b6d8qeyNuWPC7mZUywvh+E8n9/19uDSimLqqGJCEOSY70a/huuXG6b96QNRv9we+dT3QVAH3AR8/nOcoGat0pTiRxArgVwlO6jUzmcQYr0sAStXAIsfQZZNC2qzRqB4QaxMT7N14jIv1tbE13w/ZjRZlm7L08qBp/gRxGVGN1EDkiwiiZuEz9LEFyYEQZJF3Oi+Sf/x4fluodpUVGPqVhM/N5aLDJd/p+WnlVOqcyqmBOl33mrA+wxYHidg5hRrHAUlIBATQJCYCWsgEAggSEDBAgRiAggSM2ENBAIBBAkoWIBATABBYiasgUAggCABBQsQiAkgSMyENRAIBBAkoGABAjEBBImZsAYCgQCCBBQsQCAmgCAxE9ZAIBBAkICCBQjEBBAkZsIaCAQCCBJQsACBmACCxExYA4FAAEECChYgEBNAkJgJayAQCCBIQMECBGICCBIzYQ0EAgEECShYgEBMAEFiJqyBQCCgUhDmtArxY2FlAioFsTL1/sqx37Z6pQ8xUilIfWi+bhtd3m0Oge4ReHMq2HFflYK4R4Bphr5jvPd5a6Wjh4OlUpAuyu6Jq7++PHTL/CeSgPusqP2Bn7rn5nWS/L65d8/vFpkhRhvlT4Hb59HfakegWxBPX/EQ7rtQ0t/2FHj2PymTi4s4xbLyOK/ZWUMFmxMQIcjmveYNRRNwT7GS0kARgrjhVBIUKcGx2o7mWH+X0ncRgjgYkqBICY7Vdkh6BqIYQSRBsZqYIvot7IqkGEFccA51Y+oBkSISUlAjJD5BV5Qg3aU9YUcQQflTfFPqqhH3fZYoQVwGdKdaSFK8DP0OupHDnT1I+e7jpG39F5KW3W0k7htZd9+VpHbRlmUJODkkP3u9Xra7y9cW7rfi2/Ll4e5Uo7+k706pJI4afSziBek3lh9K9WnoXZYuhV6ytBwCEIAABCAAAQhAAAIQgAAEIAABCEAAAhCAAAQgAAEIQAACEIAABCAAAQhAAAIQgAAEIAABCEAAAhCAAAQgAAEIQAACEIAABCAAAQhAAAIQgAAEIAABCAgh8D/8UeWV5JELRwAAAABJRU5ErkJggg==;" vertex="1" parent="1">
          <mxGeometry x="294" y="302" width="35" height="35" as="geometry" />
        </mxCell>
        <mxCell id="a3eMfUXtKI3ahD6i4PhR-4" value="" style="shape=image;verticalLabelPosition=bottom;labelBackgroundColor=default;verticalAlign=top;aspect=fixed;imageAspect=0;image=data:image/png,iVBORw0KGgoAAAANSUhEUgAAAMgAAADICAYAAACtWK6eAAAAAXNSR0IArs4c6QAAAERlWElmTU0AKgAAAAgAAYdpAAQAAAABAAAAGgAAAAAAA6ABAAMAAAABAAEAAKACAAQAAAABAAAAyKADAAQAAAABAAAAyAAAAACbWz2VAAAJpUlEQVR4Ae2dfX6bOBBAhX97gqZX8DmaHCfdQyQ5RJvjND2Hr7DtEexlSKTYls03eEbz8keMQYD0Zh7CGIsQ+IMABCAAAQhAAAIQgAAEIAABCEAAAhCAAAQgAAEIQAACEIAABCAAAQhAAAIQgAAEIAABCEAAAhCAAAQgAAEIQAACEIAABCAAAQhAAAIQgAAEIAABCEAAAhCAAAQgMCeBas6NLbWtr6+7+0MIT3H7h0O4j9MeX6sqvP153D54bPvabVYtyJcfu+dQfYqxNhzN+0OSdaKjUpDYY3jvKbpSAEm6CE1frk4QkWN/CL+mN83HFpBk2Thvlt388K0jxzBm0sveve44oAzD1ru0KkGazxy9q07BSABJIon5X9WcYvGBfHpwOd2azvB8C6p6kPPK8X4YAXqSYbz6lNYjCJdz+8SrswySdCIaVECFIHz2GBSzzsJI0omodwEVgvSuLQV7E0CS3qhaC/7TutTQQvmAaqi6g6oqyT5ohY/CURJuSxlD730d+4Icwsvff7fP4xHoX3PKFT4kmRZfs6dY0mNsqvBQuhwS3qaN9YFgbKijJGPX97yeXUFCePnvcfvmJXhIcptI2xSkPpp6kiOmBpJEEuu92hRkPT7q9iSSTLkgwenWsJCaFKQ5kg5rZ1GlD/vwe0qDkKQ/PZOC9G8eJa8RQJJrZE7nI8gpD1fvkKQ73AjSzajoEkjSHl4EaefjYimSXA8zglxn42oJklwON4Jc5uJyLpLkYUeQnInrOUhyGn4EOeXBu5oAknymAYJ8smDqiACSvMNAkKOkYPKUAJKEgCCnOVHkO+7dGh9WBBnPzsya9dhOL4Hfk4yKF4KMwmZvJW6VHxczBBnHzeRaSDI8bAgynJnpNZBkWPgQZBivIkojSf8wIkh/VkWVRJJ+4USQfpyKLIUk3WFFkG5GRZdAkvbwIkg7HxdLkeR6mBHkOhtXS5DkcrgR5DIXl3ORJA87guRMXM9BktPwI8gpD97VBJDkMw0Q5JMFU0cEkOQdBoIcJQWTpwSQhN+DnGYE7zIC3iWx/wCdLKTMOCewP4RfX37uzmev9j7+MtHik644xVotTXzvKEpijQKCWIuY4fpalARBDCecxapbkwRBLGaZ8TpbkgRBjCeb1epbkQRBDGbYZlPGM+EtSIIgBgUp6QGm2iVBEIOCSJWnDAanrcmaJUEQbdnSsz7NYHA9y1ooplUSBLGQPRfqKKdZmyo80JNcgDPjLJe3mnx93d3PyHDQpub8/PCxrbcvP3bPUolqE74NqsyChaVHGLP52JNouS2l7qlv/9cEuApPfWvy9/t2VL2H7qdvfUaVq8fKbW4EHLWy/pWmspbecc6DyVhibk6x7l53v8IACccC7b1eXZemTr1XsFVw6l3AWlrrQhA5mo3t8pcMlNSpOdIuuZMbbrsESVwIoqrnOE/Yuie55Wei8+rM/V4ksXwhoXhBSk6+uZN5qe1ZviRdvCD7fbhfKvBzbddCHae0VT5sW+1FiheklPuWpiQo644nULwgGi4VdoXHg8SHffjdxUHj8uIFaaBPeD7f4kGr62ZB4sU5KN2BC0G0XkmR8/LmUqjS5KBajob9aW5d0NST1HXRcjsFIlwn4OperI+j9bNc+r3VlSP5vMEp1fWE1LbElSAR/keCvsX3vELgGgEXn0GuNZ75EOgigCBdhFjumgCCuA4/je8igCBdhFjumgCCuA4/je8igCBdhFjumgCCuA4/je8igCBdhFjumgCCuA4/je8igCBdhFjumoC7W03kPqxD6D/EkOvs+Gh8/C2HxzuP3QgSxaif13dP0g8kUL0zq59z+BTqu5A9ieLmFEseZKlx6J+BqXr74oWPwnIO2IUgJY89dR7QNd7LwWaN/WjYhwtBVI+LpSELRtTBy3BKxQviJZAjcnzSKrf6wdmkSo9YuXhBRjBhFQgkAsULws9bU6xnnfAwVJEAK14QaaTVUf2k7lr/vBx4fAgSwovWRDNZL02jwywM0IUgzdHOUVAXzRlnXxS6+SY9DvkTvxPR9LiyRRN6po3L7SbNkEXft28zbdLEZtwIEqPh6TaJ2GZexxNwcYo1Hg9reieAIN4zgPa3EkCQVjws9E4AQbxnAO1vJYAgrXhY6J0AgnjPANrfSgBBWvGw0DsBBPGeAbS/lQCCtOJhoXcCCOI9A2h/KwF3t5oIjfgrQy+/imvNgB4LPT82zpUgzY2K9agc9aAD739Vj+ygSKh5PdVD/gRvQ/5I6N2cYkU5yPcJBOqDSy1KPLxM2JCdVV0IghzzJuTd645hf+ZFeuOt1Ue+G9egqN3LAHzxc1xRDbvQmOJ7EC+BvBBbZs1AoHhBZmDEJi4Q8HIFEEEuBJ9ZEIgEihfEy/A0MaBrvTIu1lqk19gPI5rMS7nm6eXAU3wPIpnRDNSAJLNIIoPweRr4woUgSDKLG8036X8etw8zbc3EZlzdahLHxpLIcPl3WH56OaU6p+JKkOPGew34MQOmuwm4OcXqRkEJCOQEECRnwhwIJAIIklAwAYGcAILkTJgDgUQAQRIKJiCQE0CQnAlzIJAIIEhCwQQEcgIIkjNhDgQSAQRJKJiAQE4AQXImzIFAIoAgCQUTEMgJIEjOhDkQSAQQJKFgAgI5AQTJmTAHAokAgiQUTEAgJ4AgORPmQCARQJCEggkI5AQQJGfCHAgkAgiSUDABgZwAguRMmAOBRABBEgomIJATQJCcCXMgkAiYFIQxrVL8mFiYgElBvAy9v3Ds19280YcYmRSk2oRv60aXvU0h0DwCb8oGbriuSUHkEWCWod8w3rfZtdHeQ2CZFKSJsjxx9cfuuZnmn0oC8lnR+gM/bY/NK5L83D3J87tVZojTSsVT4Pr56vfWEdgWJNI33IXHJpT0Wp8CT/7TMri4ilMsL4/zmpw1bGB1AioEWb3V7FA1AXmKlZYKqhBEulNNULQEx2s9DvvwW0vbVQgiMDRB0RIcr/XQ9AxENYJoguI1MVW0W9kVSTWCSHA2VXD1gEgVCamoEhqfoKtKkObSnrIjiKL8Kb4qVdD3fZYqQSQDmlMtJClehuMGSs8hZw9avvs4qdvxG03TchuJfCMr911pqhd1mZeAyKH52et1r6b7L91vxbflugM1oHbxkr6cUmnsNY6bol6Q48ryQ6ljGnantUthlyw1hwAEIAABCEAAAhCAAAQgAAEIQAACEIAABCAAAQhAAAIQgAAEIAABCEAAAhCAAAQgAAEIQAACEIAABCAAAQhAAAIQgAAEIAABCEAAAhCAAAQgAAEIQAACSgj8DwYQtfyfO7FwAAAAAElFTkSuQmCC;" vertex="1" parent="1">
          <mxGeometry x="243" y="343" width="35" height="35" as="geometry" />
        </mxCell>
        <mxCell id="a3eMfUXtKI3ahD6i4PhR-5" value="" style="shape=image;verticalLabelPosition=bottom;labelBackgroundColor=default;verticalAlign=top;aspect=fixed;imageAspect=0;image=data:image/png,iVBORw0KGgoAAAANSUhEUgAAAMgAAADICAYAAACtWK6eAAAAAXNSR0IArs4c6QAAAERlWElmTU0AKgAAAAgAAYdpAAQAAAABAAAAGgAAAAAAA6ABAAMAAAABAAEAAKACAAQAAAABAAAAyKADAAQAAAABAAAAyAAAAACbWz2VAAAJkklEQVR4Ae2dW3abOhRAkdedSfLZO4Y602q7VtK10kwrdAzJ5+1UootKwMSKBQgJH+ls/xjzENI+Z/MyiKbhAwEIQAACEIAABCAAAQhAAAIQgAAEIAABCEAAAhCAAAQgAAEIQAACEIAABCAAAQhAAAIQgAAEIAABCEAAAhCAAAQgAAEIQAACEIAABCAAAQhAAAIQgAAEIAABCEAgJQGTsrBcZb3c/jgaa+9P5dvjaVjjkGm//Pl1p7Hle7dZtCAvt98ejG0mYuyNR/L6kGSP6IgU5LTH0L6nmEsBJJkjtHW6OEF6Od6etzZMz/JIkjPWh5yFx5RtLHKs42aPrzff2aCsg7Z4blGCuHOOxTVnxgkBJJnASDoo5hCLE/IUceVwKwXFaRmi9iDTijEcQ4A9SQy10DJiBOFybihMa6YhyRpac/OKEIRzj7kwrZ2OJGuJXZpfhCCXKsf4LQSQZAu9Ydl/hoHyv01bfhsutSD2D9NeEm5LucR1fnzxgljT/Pz3v6eH+aaWO8e2K3xIsiXyBR9imdaaw13tcrjguja6DUF8oDncimVXrCDWmG7P8djGNry05ZDkOhErUpD+sEqPHENqIMlAYr/vIgXZD4+8NfWHlFsuSHC4tSaqRQrSJ8maZtY1rzX297YWIclSfkUKsrRxzBcigCQhOsM0BBlIqPxGkrmwI8gcoeqnI0koxAgSoqNmGpJcCjWCXCKjbjySfBZyBPmMitpxSHIeegQ5J6L+N5JMUwBBpjQYfieAJEMqIMhAgu8zAkjigCDIWVrwc0oASRBkmg/VDnPvVmxoESSWXEHLuUcDeJ4kLmAIEsetuKW4VT4uZAgSx63IpZBkfdgQZD2zopdAknXhQ5B1vKqYG0mWhxFBlrOqak4kWRZOBFnGqcq5kGQ+rAgyz6jqOZAkHF4ECfNRMRVJLocZQS6zUTUFST4PN4J8zkXlWCTxw44gPhPVY5DkY/gR5CMPfnUEkOSUBghyYsHQhACS9DAQZJIUDH4kgCQ8MPUxI/jlEdAuSfEv0PEiygiPgLFvz68337zxi0fYxXNemLF/MrHEN11xiHUhpIxOTaDMx3cRJHUeUF6AQHmSIEggnEzKQaAsSRAkRw5Q5gyBciRBkJlQMjkXgTIkQZBc8c9a7qHNWvxuhcuXBEF2S4Z0K6rr7b6yJUGQdHm7c0lbOoPbuaqzq5MrCYLMBk/mDK4zOJk1i62VTEkQJDaeV17OHWZZc7hrGvYkOUOh8laTl9sfx5xQQ2WnPH94L6t9uf324NZprPkaWve+0+wxbn39nkTKbSkmrhFpl3IBNra5X1rqlz9PUfVeu56l9YmZz/WV624EjFm2hGW2snZ7x5Qbk1hmag6xXm++P6+RMBbo0uVcXVydls5f2nzb7wKW0WIVgvSHILG7/JyBsse+bjnXcb2ya5BEhSCS9hzn6erqds1zovP6pP7dH0aWeyGhekFqTr7UyZyrvJIvSVcvSNO8HXMFPl25JdQxvrX9yXaZexEFgtRy31J8grJkPIHqBZFwqXA+PPVLbI39Pc9B3hzVC+KQb3s/X96g9f+HPLZ510LpsQRUCCL3Sopp+7rFho/lchNQIYiD6G5dkLQncXWRcjtF7iQruXxV92K9b60f+ku/17pydOj2GhxSlSKNKkGGoLwnaDv85hsClwioOcS6BIDxEAgRQJAQHaapJ4Ag6lMAACECCBKiwzT1BBBEfQoAIEQAQUJ0mKaeAIKoTwEAhAggSIgO09QTQBD1KQCAEAEECdFhmnoC6m41cfdhGWsXdzGkPkM6AMOzHBrvPFYjyCiGvdZNiuWq1nUscXS1795zeN8/v/L04H5r+Kg5xHIvsuy2hUcNQc3Zxtp7YTlnp0KQmvueOg/oHr/7jc0ea7r+OlQIIrlfrOunQFwNtHSnVL0gWgIZl+ZbltJxLle9IFtSgGUhUL0gPN6aK8kPba6SJZVbvSA97DJ79ZOUKOd10bLhUSFIyX3DniemhN+SeofJzUOFIG5rpymoOZNG2x+Fav5JP3X5I/F1ZTlTOk3Z/e0m+rosUiPIkCYa7yca2s73egIqDrHWY2EJCPQEEIRMgECAAIIE4DAJAghCDkAgQABBAnCYBAEEIQcgECCAIAE4TIIAgpADEAgQQJAAHCZBAEHIAQgECKi71cSxOD1lqOOpuED8F07Sdw/WAEaVIK7zhr/Pp9u3of18LyLwdt91+fP3ddra7mVTc4g1yrEoIZjpMwJu49KJYj+bVus4FYIgR9r0fb353vUxpuOjQhC6/UmdzPZ4Oo9LXbas8qoXREsgZaVVPbWpXpB6QiWtJTquACKItLyjPqIIVC+Ilu5p9s+qQ7v/OvdfY/WCOKT0aJI2sfqeTR7btKXKLE2FIO7PLSRJlYCm1fRnoQpBXGogyXZB3Ebmy59fd9tLKqcEVbeavG/5Hlx4uPy7Lkm1nsupEmSaEloDPmXA8DwBNYdY8yiYAwI+AQTxmTAGAiMBBBlRMAABnwCC+EwYA4GRAIKMKBiAgE8AQXwmjIHASABBRhQMQMAngCA+E8ZAYCSAICMKBiDgE0AQnwljIDASQJARBQMQ8AkgiM+EMRAYCSDIiIIBCPgEEMRnwhgIjAQQZETBAAR8AgjiM2EMBEYCCDKiYAACPgEE8ZkwBgIjAQQZUTAAAZ8AgvhMGAOBkQCCjCgYgIBPAEF8JoyBwEigSEHo02qMHwOZCRQpSNPo6Ho/c+x3Lb7UlxgVKYix5uuu0WVlmwi4V+BtKuCKCxcpSNdfe/cKsHKhXzHeV1l1qXsPB6tQQZrGQUeSq+T74pW6c8XSX/hZdN+8TpLutcT3vNpgcc7uMuN4CGzLP1csWpAh2iXvwoc21PW9/VXqUjoXF3KIdWjrShBaUwsBIYLUgpN2pCFg2jTlbC9FhCD97lQOlO1YKWELAWvs7y3Lp1xWhCCuQZKgpARMWesJSHoHohhBJEFZH1KWSEVA2hVJMYI4wNYcVL0gMlVS1VOOvDfoihLEnYtI24LUk3zyW2KN+SmtlqIEcXB4XbO0FNmjPqbbMB7upPz3MW2xmf6QNOxuI+n/kbVHSfWiLqkJmFbyu9fFCjKEYbjfin/LByI1fPeX9N0hlcS9xpSweEGmleVBqSmNcoelS1EuWWoOAQhAAAIQgAAEIAABCEAAAhCAAAQgAAEIQAACEIAABCAAAQhAAAIQgAAEIAABCEAAAhCAAAQgAAEIQAACEIAABCAAAQhAAAIQgAAEIAABCEAAAhCAAASEEPgfDkicxl95keEAAAAASUVORK5CYII=;" vertex="1" parent="1">
          <mxGeometry x="294" y="343" width="35" height="35" as="geometry" />
        </mxCell>
        <mxCell id="a3eMfUXtKI3ahD6i4PhR-6" value="" style="shape=image;verticalLabelPosition=bottom;labelBackgroundColor=default;verticalAlign=top;aspect=fixed;imageAspect=0;image=data:image/png,iVBORw0KGgoAAAANSUhEUgAAAMgAAADICAYAAACtWK6eAAAAAXNSR0IArs4c6QAAAERlWElmTU0AKgAAAAgAAYdpAAQAAAABAAAAGgAAAAAAA6ABAAMAAAABAAEAAKACAAQAAAABAAAAyKADAAQAAAABAAAAyAAAAACbWz2VAAAPqUlEQVR4Ae2dvW7cSBLHOSvvc9wGlzjwxxOcRsEBWuAih7IAO7t4LzEOG2gULBYb7SvYgOzQ0QKrzNQbeO3AyQV+jzuvrms4bVHUkOyq/qpu/huQmxyS3dW/6n93F8nxNA0SCIAACIAACIAACIAACIAACIAACIAACIAACIAACIAACIAACIAACIAACIAACIAACIAACIAACIAACIAACIAACIBAHgKrPNWi1iGB9fHTd7vP1k2zOm8vLza7fWQZCUAgGeFT1evj003TXJ/tNwNC2c8l3acQSDrWt2oywljvhGHyuQShzBGKdRwCiUV2pFyeMG4V0pql1xWWXreYRN+BQKIj7irwEMbAQswmAyBRdyGQqHi7wqfjDKkBEIqUHOc6CIRDi3nubtawd6eYV7ueDqG4kpKcB4FIqM1cI1lOPT990jx7+mRb8qvXb5uXF29nahkehlCGRELsQyAhKO7KkAjj8cP7W2FQPkx8oazOTRmtCeTbYVnYlxGAQGTc7lzFjTOmhNEvnERCiTejYDbpM/TZhkB86JlrucKg6n795cdm34wxZQp/NqHSIJQppi7HIBAXSnvOkSyn+nHGniKdPoJQnDAFOwkCYaKUCMN1OcUxhS+UbXzS4EEjh7KZg3mnL/dsLcLoe+D9h0/NHx8/IT7pQwm8DYE4AOXGGTFmjCkz+bMJlYb4ZIqpPQaBWBJ7csmsESLO2GOK00cQihMm1kkQyB5cEmHQrEF3pzQkgVBavAi533MQSI+LVBj0BJx727ZXbbRNvlCw7Bo6AwLZEdEeZwwd57pPIqFgnv7cE4RiWS1eIFxhELiccYZ1HDfnzyZUA4SyWIFIllMlCmMoJAhlSGR6f3ECkQgj9W3baZeFOcoXyjJfhFyUQLjLqRqF0ZcXiYQSXoTsU7m9vTCBPL2+3fzxPckLheOl6T4imE2OlvJK/Te6XRfOum72mC+P4ox3v1+ovG07b73sDLpNTW2mtiPdJrAYgdxu9t09+6DPfqvv7hn1f8IQyrp+Gl0LIRDDgZZTS1pSzXVuKxSNDz/nbA99fPECoU6AjhC6W9VT3uIFUo8r0ZIYBCCQGFRRZjUEIJBqXClvyMfPzne/5ZUUeiUEUqjjQpn95urP5t+v/hequOrKuVddi9AgJwIkjDftF6dzl3wSBLIw79Ny6s3VlwbLKjfHQyBunIo/C8KQuRACkXEr5ioIw89VEIgfP9VXI87wdw8E4s9QXQkQRjiXQCDhWGYvCcup8C6AQMIzTV4ihBEPOQQSj230kiGM6IgbCCQ+4+A1QBjBkY4WCIGMotF5AAF4Wr9AIGl5i2ujWQPvTInxiS+EQMTo0lyI5VQazmO1QCBjZDJ/DmFkdsCueghEhx++WgFhfEWhYgPfB1Hhhhsj8KbtDQsNWxCIBi/ABrUEIBC1roFhGghAIBq8ABvUEoBA1LoGhmkgAIFo8AJsUEsAAlHrGhimgQAEosELsEEtAQhErWtgmAYCEIgGL8AGtQQgELWugWEaCEAgGrwAG9QSgEDUugaGaSAAgWjwAmxQSwACUesaGKaBAASiwQuwQS0BCESta9IZ9uC7VbrKCqsJ3ygszGEhzSVhnBweNBDIOFUIZJxN1UdO1gdGHFhAzDkZApkjVNlxCIPn0MUPIe8/fGpevX7Lo1bg2bSM+vnZPedZg7jQ39ITZhDTA15e3Ajk2dMnVfUJbpxhBwyIo+sGSxJIa5p8Ntb7axMJVxjEhWbSPocxVkv6fFH399bHT51/EPz56ZMmx2xC/70o/d9YPomWUpw7U3xhrI7ay4vWx8ZSrl1YDLI6cnUMjaRH358WFZ9QAP7b2bfO4qBl1A8vfmLOGqvzpYiD+sqiZhArjvXx6aZprkeXW/Y8mz9+eL+hvxQzimQG4S6nhHFGa7rLosRB/l+kQGzH5wolxbKLIxAIw3oyXr5ogRBWrkjomphCcREIVxhkMz/OaNolzhjEqp8WLxALQ4tQpgSSSBgGyXYptbFslpxDIAPv5xbKmEC4T8BlcQaEMegOy45BhjD6+1yh0LLr0YMumO+Xw90eCiSNMLCcGvNTdTOI6djr7g7V6ooabW5JbiiXpE4kdKX7HS/f+MQKhLucks0Y/sIIyVvio9jXVCOQG0c16wG01qypr/yF4i4Sql8qFPqRzgd/WTk/y6C6cgTg47xX52STD2+6XksqXiDjjhoi9l9fm7o2nNmELJAKZWj9vn37oG/fsfHP/Dik5D3ehnRHihaIpMOGuEPDrTf0g0bpcqq9fH3k07XMqzrvzPVrXhl+guTVFf7sIgXC7aD7sfk5rhtJqbO4L718ZxOpMHyfZ2jgvd+H8T8tSiBdp9x2SNMxQyVvoWw4IiGruULJKIz1rm0mD5Ja33gwiBWMQooQSBxh9CltA8vW5yU8ySjrIhRBAG4a5ve2bQrepQTx6gXCXffalwr/+Nh9G473/Qa/2YQkF0ooslnDz36JMPq8yWb6c09+9rrXIz9TrUC4Hc06ivJ+Eo7A9Nbqpl8Od5trP80m9KCREtnM62hBnmdsOEtFbby34CL8o04gklEs4lLFSyg7kRwav60j+I6KbAME4GsjDLo75Zy08nZuAONENQKRCGNsFJtqP39G8X/wxZ1NpuzfHWsDCYO+E7PelTmbuQhjWIiQt1c8OLTBZz+7QFIJow+Jli8Uo5QQn/Tt7rbTB+CSgahvN4mEUmrefRuk21kFwh1ZfR01hMQf3agE/8CS2+7O7vT11sJ76HfOfhaB7GaN4OteTsP75+YQSsfA6UFjG2A5teEE4MTm119+3H7NmLZDpxy8pW1IKpCdMKKve6UwBI5rTeeN9SIklU03CUwuS/Xx9o8HuSSTCETiqNDTOwcMXyihlj9k5fVhDmHk4p0rHnTtD9EFYsSx4UzvuRw1BEYiIefxnkf4C2VoB3df+mCVuOdM/EGJrI3PO5pAuMKg5sZc91L5kqTVccO2cHlrGYiG7dDGO7hAJMspyf31IdjY+9ocZ9sL3pbE9qGpVzz4taTeRjCBSByldRTr8bmzyReK/4uQd4wwH0h50yxdUpLw9n1NqM8niEBKXff2QXC2cwaWUmHQ/wqZO87gMO6fSyLJFQ96CcQ4a1NiAN6H77PNH92oNnlgCd6S/31eznvrLUkHkYxiJcQZEhZ0jVAoR67POHa81TxYlXIKdV1s3n07RTOIWVJd9wuZ2qZpvbR171R7po7xHef2XhWHd80D0ZA9l7f5Tj67vx8MK53b76b5+TdASRgv/vXP7ddL58qs5Ti1mTroyrjB7fnJ6tXn/3z4PNV+Lu/jv/9tqriqjhFvYk25C+/v/vroao73EFDwX5giY0sOCIeAJPv2ZxIc3l5dm/JbSR32mqXztqyJRwze31jQIXIaPTU+7AvRNm4Z5Lh3v19EnUGJNXh3nonFO5hA7EjG7Ui1n0+OIzahE5UZo9zQdqYuLzTvYAJJDQL1gUAKAhBICsqoo1gCEEixroPhKQhAIIEo0083008XIKUhQLzpf8KPnYLf5o1tsLbyO0d98f5tc23t0mpPnzf9hkpzGHeMh0CEPaHvKGERuIxBIBdvCIThJHsqTe1v2i92F3lEArmEYZsEgVgSDjmE4QAp4CkaeEMgDg7NPYo5mFjVKcRbyw0PCGSia0EYE3AiHNLIGwLZ42iNjtpjZjUfaeYNgQy6mf0Z5sHH2I1AQLMwbHMhkB0JDQGhdcoS8lJ4L14gNIppCQghDH0EFiuQEqZ3fd1FblGpvBcnkFIdJe+aea8snfdiBFK6o/J2c37ttfBehEBKCQj53VDnFTXdCaxaIBBGWgHVyLtagdTorLTdnVdbTbNGv+VxX6bv15R4++Pn+F+mSdwk1dVRzFFjqlYgNToLbUpPAAJJzxw1FkQAAinIWTA1PQEIJD1z1FgQAQikIGfB1PQEIJD0zFFjQQQgkIKcBVPTE4BA0jNHjQURgEAKchZMTU8AAknPHDUWRAACKchZMDU9AQgkPXPUWBABCKQgZ8HU9AQgkPTMUWNBBCCQgpwFU9MTqPYLU6lRnqwPmpPIv1WRuk2a60vFGwLx7AX0Iy4nhwfN9sdcPMvC5fMEUvOGQOZ9sveM1I7aa8SCPszFGwJhdrJcjmKaWc3pXN7vP3xq6C9UCiYQMuro+9Pm+emThn7MvcbEXfe+ev22eXnxNgqK2nlzhUGQY/CW3MVqpzxOHYKEQsbWkkgYv5196xyEU+f94cVPocSxSN4/P7vnHNfZwSLGYBRsBhmKgYwlwx8/vF/sjMIdxai9NDBQ7pgmO79jGdvT+p2j1BmcO0NzebeXFxsOUzqXLRBTSbs+Pj1vmuuzucqoAbazlOS0BMIw6FbnxHKOIYd3qSJJxXuO9b7j5oemZcmIZOMikn7pKeMTyX9kxnUUtU2w7m1dxdFnp533P87/2zfXaVvCm5audtB1qqRpWglvW7ZYILYArY7jCETiKIEwDLLtrLGx7CS5Vt4cgSTkfeQyS0/5wVsgtnBtjnN1WOx1b8fHXxiWs825vCkWjBkP1so7mECkjqNlF6XQMcqcw2gUozslrokbEO7KbX2mdxfbuEKJtcyd451mIPJbTu3jHVwgVEnnNNqaD+TpLEqhHTfmMO70rlUYHbXu351IDs3euv/51DZ4T9G5ORZFILZ47uhG14Vy3FAgXGGQLYI4o409Y5BdYwm8x8jIP48qEGtWDsdZgUiEQbMG3S3hpfBxBq/+m7NL4y0YiExj0/BOIhDrOq7jfAJLEkiqdW97+frItlFTzuVNs/ejB10wz20H8eY8/abyZcvXNMKw7U8qEFupxHGhg3hrC+UyR4UPCPs2hdruWFNp+eLBYVtK4p1FIASMKxK6JlR8QmVRKslRncXyf8Fbxi6bQKy5uRwnXPd6P3iy7c6VF8S7zXnDw/onu0CsIakcJ5s10q57LZOYOZe3NB4UDkT0ntomZvtdy1YjEGsw13GugaVMGGXEGZadJJfwdokHZbz1DUTqBEJO7pxGW/6BpcxR9QuD6NrEFQldNxYP1sZbpUBCOS71m5/W7lJzH6HUJgzrQ9UCsUZKHGevdc9XxQfg7m2dPjMB71ZDAD5NoTtahEBsQ+I4Tt+617Y3dw7eRsa5ncCt3zhtba4xf+7xyUgdbSmj2Ij9ST7uREJV+fPW+sbBFMjiBGIb4zG6tRCGpeieL5V3sQKxrmU4DsKw0DzypfEuXiDW19OOQ5xhOYXKZ3hXc8OjGoFYx/cc15ql1JWWJ7LWvtpy8K7No2gPCIAACIAACIAACIAACIAACIAACIAACIAACIAACIAACIAACIAACIAACIAACIAACIAACIAACIAACIAACIAACGgh8H+oA9zWs94M3wAAAABJRU5ErkJggg==;" vertex="1" parent="1">
          <mxGeometry x="263.5" y="483" width="44" height="44" as="geometry" />
        </mxCell>
        <mxCell id="a3eMfUXtKI3ahD6i4PhR-13" value="" style="shape=image;verticalLabelPosition=bottom;labelBackgroundColor=default;verticalAlign=top;aspect=fixed;imageAspect=0;image=data:image/png,iVBORw0KGgoAAAANSUhEUgAAAMgAAADICAYAAACtWK6eAAAAAXNSR0IArs4c6QAAAERlWElmTU0AKgAAAAgAAYdpAAQAAAABAAAAGgAAAAAAA6ABAAMAAAABAAEAAKACAAQAAAABAAAAyKADAAQAAAABAAAAyAAAAACbWz2VAAAJsklEQVR4Ae2dTXqcOBBAob9ZZpbJ3CHJHdI+mZ2T2bnDJHfIeGmvm5FIt9y03AKEoKtUzxvzK8SreghoEE3DHwQgAAEIQAACEIAABCAAAQhAAAIQgAAEIAABCEAAAhCAAAQgAAEIQAACEIAABCAAAQhAAAIQgAAEIAABCEAAAhCAAAQgAAEIQAACEIAABCAAAQhAAAIQgAAEIACBkgTakoWtVdbL89d923T3ofyu24dhiwNt+/Th4887i7u+9T6LFuTl9+eHtm3exNiajuTtIckm0REpSGgxrLcUYymAJGOEFs8XJ0gvR3d4XLxnVgpAklUjvVu19IzCW+SYR821sq/PXzigzKM2eWlRgvhrjsk1Z8E3AkjyxqLwkJhTLC7IC0SW060CEIdFiGpBhlVjbDYBWpLZyMZWENOCvP73uRurLPMnEqAlmQhqfDERLQjXHuOBmrUELcksXKmFRQiSqiDzMgkgSSa44Wp/DUcVj7nTCsW1T1fdJXt6gStzj5LwWMoVPhMmqxek65rvf//z62HCvqpdZNEdPiRZFHe9p1iuxeja3V3tcvjo+n30B4LsSHO6lY1OrSBd037/++O/T9l7rmxFJLlNwFQK0p9WGZLjlBpIciKx3X+VgmyHR96W+lPKJTckON2aFVSVgvRJMms361q4O3Q/Fu0RkkzGp1KQyXvHgtcJIMl1NmdzEOQMhrlBJBkNOYKMIqp8ASRJBhhBkniMzESSq4FGkKtojM1AkncDjiDvYjE6EUmiwCNIhMT4BCQZJACCDHAw0hNAkpAICBJQMDAggCQ9DgQZZAUjAwJI0iDIICMqHeHZrezAIkg2Oj0r+lcDeJ8kL14IksdN3Vo8Kp8XMgTJ46ZyLSSZHzYEmc9M9RpIMi98CDKPVxVLI8n0MCLIdFZVLYkk08KJINM4VbkUkoyHFUHGGVW9BJKkw4sgaT4m5iLJ9TAjyHU2puYgyfvhRpD3uZiciiRx2BEkZmJ6CpIMw48gQx6MOQJI8pYGCPLGgqEzAkjyBwaCnCUFg0MCSNLwPsgwJRi7JGBdEvUf0LkMKOMxgbY7PLqPpMYztppyfDNR45euOMXaKkmsb0fp67sIYj1xt9x/hZIgyJYJwraaRpkkCELSbk9AkSQIsn16sEVPQIkkCKIxXXe7J43VjuqsQBIEiaImf0JVX/cVLgmCyPfh/Rou6Qzu/RJvN1WwJAhyu7RYtGXfGdyiAqStLFQSBJGWKBPr40+zunZ319CSTCSWt5jJR01enr/u83AtX6vk9cOxrKeX358ffM3aXftteQ0LleBahKySji2JlMdS2qydKLySD3DbNvdTi/3w6VdWveduZ2p9cpbzfeX6BwFz1tWwzlLWvnUseTDJZWbmFOv1+cvjHAlzgU5dz9fF12nq8tqWW/wUsJAdNiFIfwqS2+SvGShXp75ua27jhmXXIIkJQSS1HJf56ut2y2uiy/qUHu9PIxXfSKhekJqTr3Qyr1We5lvS1QvSHA77tQJfrFwNdVyws/3FttJWpH5BanluaUGCsmo+geoFkXCrcDQ8BiTuDt2PUQ4CF6heEM980ff5Vg5a/3uI+1V85c1QfCYBE4KIvZPizsv7umUGj9XWJ2BCEI/RP7ogqSXxdZHyOMX6aaZ3C6aexToerR/6W7+3unPkrjdUXBfpzemiNTclyIncMUGfTuP8h8A1AmZOsa4BYDoEUgQQJEWHeeYJIIj5FABAigCCpOgwzzwBBDGfAgBIEUCQFB3mmSeAIOZTAAApAgiSosM88wQQxHwKACBFAEFSdJhnnoC5R038c1ht003uYsh8hjgAp3c5LD55bEaQIEan4BVcYVa6jiX2vkruO4f3/fsrFffndYnezCmW/5Cl/ybFJQDG5xGovReWSxomBKm576nLgG4x3h9sttiQgG2YEERyv1gCciCrCla6U6peECuBzMryJSvd6oWzJXXOWLd6QTKYsAoEAoHqBeH11hDrsgMGuirywKoXpM8Kpb36lc3osqVZOfCYEERz37Bl07pMaZJ6hymzR9dLMSGIP9pZCur1cC+fY+2HQjO/pIcufyR+rmx53q5eQv+4ie+y6JOtXiDNCHLKIIvPE532nf/zCZg4xZqPhTUg8IcAgpAJEEgQQJAEHGZBAEHIAQgkCCBIAg6zIIAg5AAEEgQQJAGHWRBAEHIAAgkCCJKAwywIIAg5AIEEAXOPmngW4S1DI2/FJeI/bZbhz8aZEsR33tC/n94d/iRGOy0/zC/VHe5dlz/957StPctm5hQryGE+2/MB+IOLE6XLL0HfmiYEQY6yifn6/OWxbIlySzMhCN3+FE5A1wFfuI4rXLS04qoXxEogpSVWLfWpXpBaAiVuP4zcAUQQcZlHhSQRqF4QK93TbJ5U9Iu1OfLVNkiPJmXR9j2buJ5iypYqs7TqWxCP3f+4hSSFEtB1wmfpx0ITgiBJGTn8QebDx593ZUrTUYqpR02OR74HHxpu/85LUKvXcqYEOU8JqwE/Z8DwOAEzp1jjKFgCAjEBBImZMAUCgQCCBBQMQCAmgCAxE6ZAIBBAkICCAQjEBBAkZsIUCAQCCBJQMACBmACCxEyYAoFAAEECCgYgEBNAkJgJUyAQCCBIQMEABGICCBIzYQoEAgEECSgYgEBMAEFiJkyBQCCAIAEFAxCICSBIzIQpEAgEECSgYAACMQEEiZkwBQKBAIIEFAxAICaAIDETpkAgEECQgIIBCMQEECRmwhQIBAIqBaFPqxA/BlYmoFKQxkjX+yvHftPitX7ESKUg7a79tml02dgiAv4TeIsKuOHKKgVxn1vda4Z+w3jfZNNaWw8PS6cgruIeOpLcJN8nb9RfK2r/4Kfqvnm9JO6zxPd82mByzm6yYDgF7g77TTa44kZUC3LiorkJP+1DVf/dEWvpn5TOxWWcYhn5nNfSpGH97QnIEGT7/WaLkgm4r1hJqZ4IQfrmVBAUKcGxWo/u0P2Qsu8iBPEwJEGREhyr9ZD0DUQxgkiCYjUxJey3tDuSYgTxwenanakPREpISFF1EPgFXVGC+GsRaUcQUQlUeWW6pv0ubRdFCeLh+FMtJJGWJivXx7Uc/uxBym8f53vbno9IGvaPkfS/yLrnriTVi7oUJuDkkPztdbGCnMJwet6KX8tPRCr4f7yl70+pJLYa54TFC3JeWV6UOqehd1i6FHrJUnMIQAACEIAABCAAAQhAAAIQgAAEIAABCEAAAhCAAAQgAAEIQAACEIAABCAAAQhAAAIQgAAEIAABCEAAAhCAAAQgAAEIQAACEIAABCAAAQhAAAIQgAAEICCEwP8ZdvpRY++9rQAAAABJRU5ErkJggg==;" vertex="1" parent="1">
          <mxGeometry x="180.5" y="678" width="35" height="35" as="geometry" />
        </mxCell>
        <mxCell id="a3eMfUXtKI3ahD6i4PhR-14" value="" style="shape=image;verticalLabelPosition=bottom;labelBackgroundColor=default;verticalAlign=top;aspect=fixed;imageAspect=0;image=data:image/png,iVBORw0KGgoAAAANSUhEUgAAAMgAAADICAYAAACtWK6eAAAAAXNSR0IArs4c6QAAAERlWElmTU0AKgAAAAgAAYdpAAQAAAABAAAAGgAAAAAAA6ABAAMAAAABAAEAAKACAAQAAAABAAAAyKADAAQAAAABAAAAyAAAAACbWz2VAAAJu0lEQVR4Ae2dbXabOBRAwWfa2UPSBTTdRJOVJV1Z0k1MZgHT7qHNOWYQjRRsxSDE13t6tz8aDEKW7nsXYYxFVfEPAhCAAAQgAAEIQAACEIAABCAAAQhAAAIQgAAEIAABCEAAAhCAAAQgAAEIQAACEIAABCAAAQhAAAIQgAAEIAABCEAAAhCAAAQgAAEIQAACEIAABCAAAQhAAAIQgMCSBOolK1urrk8vn2+bqr739TdNdeuXLf6t6+rpx4fnO4t937rPogW5+vXloaqbIMbWcCS/H5JsEx2RgvgRw/pIMZYCSDJGaP52cYI4OY5N/Ti/azZqQJJ143xYt/rptSPHNGZulL1+ueGAMg1bcmlRgnSfOZKbTkFPAEk8ieX/ijnF4gP5/OByujWf4XkNokaQ88bxehoBRpJpvFJKyxlBft80KQ2mzDgBRpJxRqklRIwgfPZIDVdaOUaSNE4ppUQIktJQykwjgCTTeF0q/delDdrWu9MKbW1Oba9L9tSy/XJeEm5L6VOZtqxfkKb+9vPvfx6mdVtX6TlX+JBkXqzVnmK5EeNQN3ely+HC2/WxPRDkhtpLkru/5f30ClI13/778O+TleAhyT6R1ilIezS1JIdPDSTxJLb7q1OQ7fiIeycnyZwLEpxuTQupSkG6I+m0fhZVujnW3+d0CEnS6akUJL17lLxEAEkukTldjyCnPEy9QpLxcCPIOKOiSyDJcHgRZJiPia1IcjnMCHKZjaktSPJ+uBHkfS4m1yJJHHYEiZmYXoMkp+FHkFMevGoJIMlbGiDIGwuWegSQ5A8MBOklBYunBJCkqhDkNCeKfMW9W/lhRZB8dmr2rNufBlT8niQrXgiShU3fTtwqnxczBMnjpnIvJJkeNgSZzkz1HkgyLXwIMo1XEaWRJD2MCJLOqqiSSJIWTgRJ41RkKSQZDyuCjDMqugSSDIcXQYb5mNiKJJfDjCCX2ZjagiTvhxtB3udici2SxGFHkJiJ6TVIchp+BDnlwauWAJK8pQGCvLFgqUcASf7AQJBeUrB4SgBJ+D3IaUbwKiJgXRL9D9CJQsqKcwLHpn68+n1zvnrC63nPV/W/TNT4pCtOsSakCUXzCXhJ8mvYZ08E2Ye7yXfVKAmCmEzV/TqtTRIE2S9XzL6zJkkQxGya7ttxLZIgyL55kvXuh8PxKWtHYTtpkARBhCVNSnNKeoCpdEkQJCUjBZaZMxmctO5IlgRBpGVLYnu6yeASy2ooJlUSBNGQPe+00Z1mHermjpHkHTgLrjJ5q8mnl8+3CzKcVNWSnx9e63q6+vXlwTWiPjRfJzVmxcJuRMip3o8kUm5LqXM6sfQ+XYDr5j613p8fn7PaPfV9UtuTVa6dK7e7ETBrZ/k7zWXtRsclDya5xMycYl2/3DxWEyTMBZq8X9uWrk3JO+gqOPcuYCm9NSGIO5rlDvlrBsq1qTvSrvkmO9ZdgiQmBBE1cpwnbDuS7PmZ6Lw5S792kmi+kFC8ICUn39LJvFZ9mi9JFy/I8Xi4XSvwS9WroY1z+uo+bGsdRYoXpJT7luYkKPvmEyheEAmXCsfCY0Hi5lh/H+MgcXvxgnTQZzyfb/WgtW3TIPHqHIS+gQlBpF5Jcefl3aVQoclBswxN+9PduiBpJGnbIuV2CkS4TMDUvVivR+sHd+l3rytH7vMGp1SXE1LaFlOCePivCfrkX/MXApcImPgMcqnzrIfAGAEEGSPEdtMEEMR0+On8GAEEGSPEdtMEEMR0+On8GAEEGSPEdtMEEMR0+On8GAEEGSPEdtMEEMR0+On8GAEEGSPEdtMEzN1q4u7Daqo6eYoh09nx2nn/Ww6Ldx6bEcSLccyc0My0KHVz6/rfPufwvmrvQrYkiplTLPcgS4lT/6gTr/BZWM7jYUKQkueeOg/oFq/dwWaL95HwHiYEET0vloQsyGiDlemUihfESiAzcnzWLnv94GxWozN2Ll6QDCbsAoFAoHhB+HlriPWiCxamKnLAihfEdVLrrH6u7VL/WTnw2BCkar5JTTSV7ZI0O8zKAE0I0h3tDAV11Zwx9kWhmW/S/ZQ//jsRSY8rWzWhF6rc3W7STVn08flpoSpVVGNGEB8NS7dJ+D7zN5+AiVOsfDzsaZ0AgljPAPo/SABBBvGw0ToBBLGeAfR/kACCDOJho3UCCGI9A+j/IAEEGcTDRusEEMR6BtD/QQIIMoiHjdYJIIj1DKD/gwTM3WriaPhfGVr5VdxgBiRstPzYOFOCdDcqtrNytFP//PlX+4WELDFcpJ2k4b6d8qeyNuWPC7mZUywvh+E8n9/19uDSimLqqGJCEOSY70a/huuXG6b96QNRv9we+dT3QVAH3AR8/nOcoGat0pTiRxArgVwlO6jUzmcQYr0sAStXAIsfQZZNC2qzRqB4QaxMT7N14jIv1tbE13w/ZjRZlm7L08qBp/gRxGVGN1EDkiwiiZuEz9LEFyYEQZJF3Oi+Sf/x4fluodpUVGPqVhM/N5aLDJd/p+WnlVOqcyqmBOl33mrA+wxYHidg5hRrHAUlIBATQJCYCWsgEAggSEDBAgRiAggSM2ENBAIBBAkoWIBATABBYiasgUAggCABBQsQiAkgSMyENRAIBBAkoGABAjEBBImZsAYCgQCCBBQsQCAmgCAxE9ZAIBBAkICCBQjEBBAkZsIaCAQCCBJQsACBmACCxExYA4FAAEECChYgEBNAkJgJayAQCCBIQMECBGICCBIzYQ0EAgEECShYgEBMAEFiJqyBQCCgUhDmtArxY2FlAioFsTL1/sqx37Z6pQ8xUilIfWi+bhtd3m0Oge4ReHMq2HFflYK4R4Bphr5jvPd5a6Wjh4OlUpAuyu6Jq7++PHTL/CeSgPusqP2Bn7rn5nWS/L65d8/vFpkhRhvlT4Hb59HfakegWxBPX/EQ7rtQ0t/2FHj2PymTi4s4xbLyOK/ZWUMFmxMQIcjmveYNRRNwT7GS0kARgrjhVBIUKcGx2o7mWH+X0ncRgjgYkqBICY7Vdkh6BqIYQSRBsZqYIvot7IqkGEFccA51Y+oBkSISUlAjJD5BV5Qg3aU9YUcQQflTfFPqqhH3fZYoQVwGdKdaSFK8DP0OupHDnT1I+e7jpG39F5KW3W0k7htZd9+VpHbRlmUJODkkP3u9Xra7y9cW7rfi2/Ll4e5Uo7+k706pJI4afSziBek3lh9K9WnoXZYuhV6ytBwCEIAABCAAAQhAAAIQgAAEIAABCEAAAhCAAAQgAAEIQAACEIAABCAAAQhAAAIQgAAEIAABCEAAAhCAAAQgAAEIQAACEIAABCAAAQhAAAIQgAAEIAABCAgh8D/8UeWV5JELRwAAAABJRU5ErkJggg==;" vertex="1" parent="1">
          <mxGeometry x="243.5" y="678" width="35" height="35" as="geometry" />
        </mxCell>
        <mxCell id="a3eMfUXtKI3ahD6i4PhR-15" value="" style="shape=image;verticalLabelPosition=bottom;labelBackgroundColor=default;verticalAlign=top;aspect=fixed;imageAspect=0;image=data:image/png,iVBORw0KGgoAAAANSUhEUgAAAMgAAADICAYAAACtWK6eAAAAAXNSR0IArs4c6QAAAERlWElmTU0AKgAAAAgAAYdpAAQAAAABAAAAGgAAAAAAA6ABAAMAAAABAAEAAKACAAQAAAABAAAAyKADAAQAAAABAAAAyAAAAACbWz2VAAAJpUlEQVR4Ae2dfX6bOBBAhX97gqZX8DmaHCfdQyQ5RJvjND2Hr7DtEexlSKTYls03eEbz8keMQYD0Zh7CGIsQ+IMABCAAAQhAAAIQgAAEIAABCEAAAhCAAAQgAAEIQAACEIAABCAAAQhAAAIQgAAEIAABCEAAAhCAAAQgAAEIQAACEIAABCAAAQhAAAIQgAAEIAABCEAAAhCAAAQgMCeBas6NLbWtr6+7+0MIT3H7h0O4j9MeX6sqvP153D54bPvabVYtyJcfu+dQfYqxNhzN+0OSdaKjUpDYY3jvKbpSAEm6CE1frk4QkWN/CL+mN83HFpBk2Thvlt388K0jxzBm0sveve44oAzD1ru0KkGazxy9q07BSABJIon5X9WcYvGBfHpwOd2azvB8C6p6kPPK8X4YAXqSYbz6lNYjCJdz+8SrswySdCIaVECFIHz2GBSzzsJI0omodwEVgvSuLQV7E0CS3qhaC/7TutTQQvmAaqi6g6oqyT5ohY/CURJuSxlD730d+4Icwsvff7fP4xHoX3PKFT4kmRZfs6dY0mNsqvBQuhwS3qaN9YFgbKijJGPX97yeXUFCePnvcfvmJXhIcptI2xSkPpp6kiOmBpJEEuu92hRkPT7q9iSSTLkgwenWsJCaFKQ5kg5rZ1GlD/vwe0qDkKQ/PZOC9G8eJa8RQJJrZE7nI8gpD1fvkKQ73AjSzajoEkjSHl4EaefjYimSXA8zglxn42oJklwON4Jc5uJyLpLkYUeQnInrOUhyGn4EOeXBu5oAknymAYJ8smDqiACSvMNAkKOkYPKUAJKEgCCnOVHkO+7dGh9WBBnPzsya9dhOL4Hfk4yKF4KMwmZvJW6VHxczBBnHzeRaSDI8bAgynJnpNZBkWPgQZBivIkojSf8wIkh/VkWVRJJ+4USQfpyKLIUk3WFFkG5GRZdAkvbwIkg7HxdLkeR6mBHkOhtXS5DkcrgR5DIXl3ORJA87guRMXM9BktPwI8gpD97VBJDkMw0Q5JMFU0cEkOQdBoIcJQWTpwSQhN+DnGYE7zIC3iWx/wCdLKTMOCewP4RfX37uzmev9j7+MtHik644xVotTXzvKEpijQKCWIuY4fpalARBDCecxapbkwRBLGaZ8TpbkgRBjCeb1epbkQRBDGbYZlPGM+EtSIIgBgUp6QGm2iVBEIOCSJWnDAanrcmaJUEQbdnSsz7NYHA9y1ooplUSBLGQPRfqKKdZmyo80JNcgDPjLJe3mnx93d3PyHDQpub8/PCxrbcvP3bPUolqE74NqsyChaVHGLP52JNouS2l7qlv/9cEuApPfWvy9/t2VL2H7qdvfUaVq8fKbW4EHLWy/pWmspbecc6DyVhibk6x7l53v8IACccC7b1eXZemTr1XsFVw6l3AWlrrQhA5mo3t8pcMlNSpOdIuuZMbbrsESVwIoqrnOE/Yuie55Wei8+rM/V4ksXwhoXhBSk6+uZN5qe1ZviRdvCD7fbhfKvBzbddCHae0VT5sW+1FiheklPuWpiQo644nULwgGi4VdoXHg8SHffjdxUHj8uIFaaBPeD7f4kGr62ZB4sU5KN2BC0G0XkmR8/LmUqjS5KBajob9aW5d0NST1HXRcjsFIlwn4OperI+j9bNc+r3VlSP5vMEp1fWE1LbElSAR/keCvsX3vELgGgEXn0GuNZ75EOgigCBdhFjumgCCuA4/je8igCBdhFjumgCCuA4/je8igCBdhFjumgCCuA4/je8igCBdhFjumgCCuA4/je8igCBdhFjumoC7W03kPqxD6D/EkOvs+Gh8/C2HxzuP3QgSxaif13dP0g8kUL0zq59z+BTqu5A9ieLmFEseZKlx6J+BqXr74oWPwnIO2IUgJY89dR7QNd7LwWaN/WjYhwtBVI+LpSELRtTBy3BKxQviJZAjcnzSKrf6wdmkSo9YuXhBRjBhFQgkAsULws9bU6xnnfAwVJEAK14QaaTVUf2k7lr/vBx4fAgSwovWRDNZL02jwywM0IUgzdHOUVAXzRlnXxS6+SY9DvkTvxPR9LiyRRN6po3L7SbNkEXft28zbdLEZtwIEqPh6TaJ2GZexxNwcYo1Hg9reieAIN4zgPa3EkCQVjws9E4AQbxnAO1vJYAgrXhY6J0AgnjPANrfSgBBWvGw0DsBBPGeAbS/lQCCtOJhoXcCCOI9A2h/KwF3t5oIjfgrQy+/imvNgB4LPT82zpUgzY2K9agc9aAD739Vj+ygSKh5PdVD/gRvQ/5I6N2cYkU5yPcJBOqDSy1KPLxM2JCdVV0IghzzJuTd645hf+ZFeuOt1Ue+G9egqN3LAHzxc1xRDbvQmOJ7EC+BvBBbZs1AoHhBZmDEJi4Q8HIFEEEuBJ9ZEIgEihfEy/A0MaBrvTIu1lqk19gPI5rMS7nm6eXAU3wPIpnRDNSAJLNIIoPweRr4woUgSDKLG8036X8etw8zbc3EZlzdahLHxpLIcPl3WH56OaU6p+JKkOPGew34MQOmuwm4OcXqRkEJCOQEECRnwhwIJAIIklAwAYGcAILkTJgDgUQAQRIKJiCQE0CQnAlzIJAIIEhCwQQEcgIIkjNhDgQSAQRJKJiAQE4AQXImzIFAIoAgCQUTEMgJIEjOhDkQSAQQJKFgAgI5AQTJmTAHAokAgiQUTEAgJ4AgORPmQCARQJCEggkI5AQQJGfCHAgkAgiSUDABgZwAguRMmAOBRABBEgomIJATQJCcCXMgkAiYFIQxrVL8mFiYgElBvAy9v3Ds19280YcYmRSk2oRv60aXvU0h0DwCb8oGbriuSUHkEWCWod8w3rfZtdHeQ2CZFKSJsjxx9cfuuZnmn0oC8lnR+gM/bY/NK5L83D3J87tVZojTSsVT4Pr56vfWEdgWJNI33IXHJpT0Wp8CT/7TMri4ilMsL4/zmpw1bGB1AioEWb3V7FA1AXmKlZYKqhBEulNNULQEx2s9DvvwW0vbVQgiMDRB0RIcr/XQ9AxENYJoguI1MVW0W9kVSTWCSHA2VXD1gEgVCamoEhqfoKtKkObSnrIjiKL8Kb4qVdD3fZYqQSQDmlMtJClehuMGSs8hZw9avvs4qdvxG03TchuJfCMr911pqhd1mZeAyKH52et1r6b7L91vxbflugM1oHbxkr6cUmnsNY6bol6Q48ryQ6ljGnantUthlyw1hwAEIAABCEAAAhCAAAQgAAEIQAACEIAABCAAAQhAAAIQgAAEIAABCEAAAhCAAAQgAAEIQAACEIAABCAAAQhAAAIQgAAEIAABCEAAAhCAAAQgAAEIQAACSgj8DwYQtfyfO7FwAAAAAElFTkSuQmCC;" vertex="1" parent="1">
          <mxGeometry x="303.5" y="678" width="35" height="35" as="geometry" />
        </mxCell>
        <mxCell id="a3eMfUXtKI3ahD6i4PhR-16" value="" style="shape=image;verticalLabelPosition=bottom;labelBackgroundColor=default;verticalAlign=top;aspect=fixed;imageAspect=0;image=data:image/png,iVBORw0KGgoAAAANSUhEUgAAAMgAAADICAYAAACtWK6eAAAAAXNSR0IArs4c6QAAAERlWElmTU0AKgAAAAgAAYdpAAQAAAABAAAAGgAAAAAAA6ABAAMAAAABAAEAAKACAAQAAAABAAAAyKADAAQAAAABAAAAyAAAAACbWz2VAAAJkklEQVR4Ae2dW3abOhRAkdedSfLZO4Y602q7VtK10kwrdAzJ5+1UootKwMSKBQgJH+ls/xjzENI+Z/MyiKbhAwEIQAACEIAABCAAAQhAAAIQgAAEIAABCEAAAhCAAAQgAAEIQAACEIAABCAAAQhAAAIQgAAEIAABCEAAAhCAAAQgAAEIQAACEIAABCAAAQhAAAIQgAAEIAABCEAgJQGTsrBcZb3c/jgaa+9P5dvjaVjjkGm//Pl1p7Hle7dZtCAvt98ejG0mYuyNR/L6kGSP6IgU5LTH0L6nmEsBJJkjtHW6OEF6Od6etzZMz/JIkjPWh5yFx5RtLHKs42aPrzff2aCsg7Z4blGCuHOOxTVnxgkBJJnASDoo5hCLE/IUceVwKwXFaRmi9iDTijEcQ4A9SQy10DJiBOFybihMa6YhyRpac/OKEIRzj7kwrZ2OJGuJXZpfhCCXKsf4LQSQZAu9Ydl/hoHyv01bfhsutSD2D9NeEm5LucR1fnzxgljT/Pz3v6eH+aaWO8e2K3xIsiXyBR9imdaaw13tcrjguja6DUF8oDncimVXrCDWmG7P8djGNry05ZDkOhErUpD+sEqPHENqIMlAYr/vIgXZD4+8NfWHlFsuSHC4tSaqRQrSJ8maZtY1rzX297YWIclSfkUKsrRxzBcigCQhOsM0BBlIqPxGkrmwI8gcoeqnI0koxAgSoqNmGpJcCjWCXCKjbjySfBZyBPmMitpxSHIeegQ5J6L+N5JMUwBBpjQYfieAJEMqIMhAgu8zAkjigCDIWVrwc0oASRBkmg/VDnPvVmxoESSWXEHLuUcDeJ4kLmAIEsetuKW4VT4uZAgSx63IpZBkfdgQZD2zopdAknXhQ5B1vKqYG0mWhxFBlrOqak4kWRZOBFnGqcq5kGQ+rAgyz6jqOZAkHF4ECfNRMRVJLocZQS6zUTUFST4PN4J8zkXlWCTxw44gPhPVY5DkY/gR5CMPfnUEkOSUBghyYsHQhACS9DAQZJIUDH4kgCQ8MPUxI/jlEdAuSfEv0PEiygiPgLFvz68337zxi0fYxXNemLF/MrHEN11xiHUhpIxOTaDMx3cRJHUeUF6AQHmSIEggnEzKQaAsSRAkRw5Q5gyBciRBkJlQMjkXgTIkQZBc8c9a7qHNWvxuhcuXBEF2S4Z0K6rr7b6yJUGQdHm7c0lbOoPbuaqzq5MrCYLMBk/mDK4zOJk1i62VTEkQJDaeV17OHWZZc7hrGvYkOUOh8laTl9sfx5xQQ2WnPH94L6t9uf324NZprPkaWve+0+wxbn39nkTKbSkmrhFpl3IBNra5X1rqlz9PUfVeu56l9YmZz/WV624EjFm2hGW2snZ7x5Qbk1hmag6xXm++P6+RMBbo0uVcXVydls5f2nzb7wKW0WIVgvSHILG7/JyBsse+bjnXcb2ya5BEhSCS9hzn6erqds1zovP6pP7dH0aWeyGhekFqTr7UyZyrvJIvSVcvSNO8HXMFPl25JdQxvrX9yXaZexEFgtRy31J8grJkPIHqBZFwqXA+PPVLbI39Pc9B3hzVC+KQb3s/X96g9f+HPLZ510LpsQRUCCL3Sopp+7rFho/lchNQIYiD6G5dkLQncXWRcjtF7iQruXxV92K9b60f+ku/17pydOj2GhxSlSKNKkGGoLwnaDv85hsClwioOcS6BIDxEAgRQJAQHaapJ4Ag6lMAACECCBKiwzT1BBBEfQoAIEQAQUJ0mKaeAIKoTwEAhAggSIgO09QTQBD1KQCAEAEECdFhmnoC6m41cfdhGWsXdzGkPkM6AMOzHBrvPFYjyCiGvdZNiuWq1nUscXS1795zeN8/v/L04H5r+Kg5xHIvsuy2hUcNQc3Zxtp7YTlnp0KQmvueOg/oHr/7jc0ea7r+OlQIIrlfrOunQFwNtHSnVL0gWgIZl+ZbltJxLle9IFtSgGUhUL0gPN6aK8kPba6SJZVbvSA97DJ79ZOUKOd10bLhUSFIyX3DniemhN+SeofJzUOFIG5rpymoOZNG2x+Fav5JP3X5I/F1ZTlTOk3Z/e0m+rosUiPIkCYa7yca2s73egIqDrHWY2EJCPQEEIRMgECAAIIE4DAJAghCDkAgQABBAnCYBAEEIQcgECCAIAE4TIIAgpADEAgQQJAAHCZBAEHIAQgECKi71cSxOD1lqOOpuED8F07Sdw/WAEaVIK7zhr/Pp9u3of18LyLwdt91+fP3ddra7mVTc4g1yrEoIZjpMwJu49KJYj+bVus4FYIgR9r0fb353vUxpuOjQhC6/UmdzPZ4Oo9LXbas8qoXREsgZaVVPbWpXpB6QiWtJTquACKItLyjPqIIVC+Ilu5p9s+qQ7v/OvdfY/WCOKT0aJI2sfqeTR7btKXKLE2FIO7PLSRJlYCm1fRnoQpBXGogyXZB3Ebmy59fd9tLKqcEVbeavG/5Hlx4uPy7Lkm1nsupEmSaEloDPmXA8DwBNYdY8yiYAwI+AQTxmTAGAiMBBBlRMAABnwCC+EwYA4GRAIKMKBiAgE8AQXwmjIHASABBRhQMQMAngCA+E8ZAYCSAICMKBiDgE0AQnwljIDASQJARBQMQ8AkgiM+EMRAYCSDIiIIBCPgEEMRnwhgIjAQQZETBAAR8AgjiM2EMBEYCCDKiYAACPgEE8ZkwBgIjAQQZUTAAAZ8AgvhMGAOBkQCCjCgYgIBPAEF8JoyBwEigSEHo02qMHwOZCRQpSNPo6Ho/c+x3Lb7UlxgVKYix5uuu0WVlmwi4V+BtKuCKCxcpSNdfe/cKsHKhXzHeV1l1qXsPB6tQQZrGQUeSq+T74pW6c8XSX/hZdN+8TpLutcT3vNpgcc7uMuN4CGzLP1csWpAh2iXvwoc21PW9/VXqUjoXF3KIdWjrShBaUwsBIYLUgpN2pCFg2jTlbC9FhCD97lQOlO1YKWELAWvs7y3Lp1xWhCCuQZKgpARMWesJSHoHohhBJEFZH1KWSEVA2hVJMYI4wNYcVL0gMlVS1VOOvDfoihLEnYtI24LUk3zyW2KN+SmtlqIEcXB4XbO0FNmjPqbbMB7upPz3MW2xmf6QNOxuI+n/kbVHSfWiLqkJmFbyu9fFCjKEYbjfin/LByI1fPeX9N0hlcS9xpSweEGmleVBqSmNcoelS1EuWWoOAQhAAAIQgAAEIAABCEAAAhCAAAQgAAEIQAACEIAABCAAAQhAAAIQgAAEIAABCEAAAhCAAAQgAAEIQAACEIAABCAAAQhAAAIQgAAEIAABCEAAAhCAAASEEPgfDkicxl95keEAAAAASUVORK5CYII=;" vertex="1" parent="1">
          <mxGeometry x="360.5" y="680" width="35" height="35" as="geometry" />
        </mxCell>
        <mxCell id="a3eMfUXtKI3ahD6i4PhR-17" value="" style="shape=image;verticalLabelPosition=bottom;labelBackgroundColor=default;verticalAlign=top;aspect=fixed;imageAspect=0;image=data:image/png,iVBORw0KGgoAAAANSUhEUgAAAMgAAADICAYAAACtWK6eAAAAAXNSR0IArs4c6QAAAERlWElmTU0AKgAAAAgAAYdpAAQAAAABAAAAGgAAAAAAA6ABAAMAAAABAAEAAKACAAQAAAABAAAAyKADAAQAAAABAAAAyAAAAACbWz2VAAALw0lEQVR4Ae2cDXLjOA5Ge2b3IHsTIycL+2RmTjJHyQI9cpVG4yYJSZRJ+KGK0Q9BEHjk559ElR8/MAhAAAIQgAAEIAABCEAAAhCAAAQgAAEIQAACEIAABCAAAQhAAAIQgAAEIAABCEAAAhCAAAQgAAEIQAACEIAABCAAgZkI/DFRsrLkasfbcm4HWZ1zGptAXsr7Wo52ba2bjS4Q0co/l+rtHIPAlkDWGyaYpO2tLGm13zQYOPaA7ZlT7T+nRjsnmGiYv7TZEYOAh4Cos30qytpCWtKqeNeAwdE9cD9LHSO9g5g4Ps8qjDhvTeB/Wv0p7ySjCCRpQYhDIWCnERCNdFgkFuDVljSBPeLIS+Jfy5HDPARumqpclO6HzpMvmuv0aUQjfje2u/qZvzVsbgJJ029d96N+tm+mtaSZtwAwPywGgaRltKz5mT4yI7oWUKb+KYubcUEuyjnpPGdu/pZYto+ms6QZ14qbrigSLhIQ7a2tea9+m3sqq4FIU1VDsi0EbE1r696r/96S4Cg+NVDWj8Uj0Gvzt8SdSiCWbKmoeFuDiqSy5qX9cFaf5eCyP13e5znLeaGINAkB1tyxUKVXhOSIg+s8BO6aamndr+izHFz2incQcWWIcxQCI6y7O4dXCKS24LnmQD8EriIwokCuqp15riMg101VncmVCwKp8sThBAKuTXnCfKeFQCCnoSTQJAQ+PXkiEA8tfPcSuO0d+OpxCOTVK8D8QxNAIEMvT5jkZNZKEMisK0feewmIZ+C7CMQFxQMQ39gE/hu4vKS12ZdD0ba2n3qR1jd2nouOszazZU3eGjYQAdFcvgvN+o/aXQOU5rB+2TmJjSvFnq0v7eTgGTYaE0/ul/uKzlgCZv1HLOngUvxH333HJK2xH3PMctzDohWfqONoHFpz/xHtI1bSyj8bqxf1S0vTQ9VEPVpjV4MN5mC1paXp4VKzj7z50hkdk0UTyM1Ru7l6/MUZezZ3E396QdJZ57Q2pEX7LZY4KXv8PWJypjGMu4fHMEn3TCSSQPYubuu4Vr+e60XsiwlEEkjeya51XKvfzjQYNiKBSAIxvnlEyBPlBL/NYkUTiPcfWdtvUFrN49sacyS/6PWNxLqYi2jvd6FZ/xG76+BS/Eef+Xkt6YDH+EjHPSxa2UmFmfUPa9HeQQz0h7baq2Fu8FGXf1nSO7XY/xo0+A2rx5hhTwhE+zvIo8S0nNz0KMu5HbK2L21J215LOtCaLE0PU1pesn4cpywiYtKiRZU+nlj/2SZnByReMwFjf/V6NydXc4z4EetZzfnZTe5BoEbgXQRS40A/BJ4SQCBPsXATAn8TQCDsBAgUCCCQAhy6IIBA2AMQKBBAIAU4dEEAgbAHIFAggEAKcOiCAAJhD0CgQCDqs1jrkkUvrJmlXz/5AYFGApEFYo9wy4bDp17b06tpc997KTrA2k3brGYPbZqlXz/5MQwB0Ux6PrxWi/+Y2/z2WNJBjxgRjnetR7T1MtHAJU7Wj60IiJ73BFaKve1bpdV0miq5b+PPdC1NBPxOFrfEwfqHtT+HzWxfYsk57O7wt9ifDv/ZXCPXtnstognk5iQhTv/I7rB4srrRBLJnkVvHvMMrbCuLJ1sp5q1IAmFxj+9RGG4YRhJI3tTWetk6rtWvdd4R/d6hRhf3SAKxwr0L7PW3OSJbjlzcntqiCcT+COixxx/LWsZ8tDhN7ONlN3Gp7alHE0jW0lsX2vySNo9FFckeFh5u+DoIiPp+F5r1H7WkAUpzWP8RSzq4FH+mPjkComGsxS/xsP5hLeqzWEmJZ22i7bYcsx7N7NUy28kBSzrWmmib2fLMyV+Re1SBGLu8NDvvZblXYOKOQSDad5AxqJJFGAIIJMxSUkgPAgikB1VihiGAQMIsJYX0IIBAelAlZhgCCCTMUlJIDwIIpAdVYoYhgEDCLCWF9CCAQHpQJWYYAggkzFJSSA8CkR81MV6yNHse60ubWfr1kx8QGJSAaF69n+60Oe6FeZL2HbGkg0vxS/WN1Gd19DbRCUo1Wz+2IiB63hNYqsR/zG1+XhMdcNf2iBHlmLSmXiYauMTJ+rEVAdHznsBKsbd9lovH7uq8jRHlWjwgHL4Wt8TI+oe1aF/Sk5P0p8PfYovDfzZXD4vZatudbzSBeBdZHORuDt8ZXY2FNWxFIJpAVqU1n0qjZ6tfYzjcZiAQSSBs4OM7DoYbhpEEkje1tV62jmv1a513RL80YlKvzCmSQIxjdsK0f+DQah7f1pgj+eWRkhkll2gC8W5iz6YwX4+/uk9lXnZTFbc32WgCyQqidaHNz/w9tmeMJ/6rfKPW9Sqeh+YVHf1daNZ/1JIG6DmHxb9X5ijNP0Kf5W9NtPU00eCleq0fWxEQPb8KWNK5rF21GXQqbENA9Pqq9d5Mffwy+tO86TgiIrwzgWjfQd55Lam9AwEE0gEqIeMQQCBx1pJKOhBAIB2gEjIOAQQSZy2ppAMBBNIBKiHjEEAgcdaSSjoQQCAdoBIyDoHofyiUZakex7Rcc4DAsAREM+v96IHNYY+XPJsn6f2jJhrA4v9ujmfzjnTP8k5L00NXE41eqt36sRUB0fOewFIl/mNuy2OPJR30iBHheNd6RFsvEw1c4mT92IqA6HlPYKXY275VWk2nqZL7Nv5M19JEwO9kcUscrH9Yi/YlPTlJ3x3+FvvT4T+ba+Tadq9FNIF4F1kc5G4O3xldjYU1bEUgmkBWpTWfSqNnq19jONxmIBBJIGzg4zsOhhuGkQSSN7W1XraOa/VrnXdEv3eo0cU9kkCscO8Ce/1tjsiWIxe3p7ZoAmn9jyYPVl+Pk4bjR4PPzC5edjPX2px7NIFkrbx1oc0vafNYVJHsYeHhhq+DgKjvd6FZ/1FLGqA0h/UfsaSDS/Fn6btrHaKtp4kGL/Gw/mEt6sOKSYlnbaLtthyzHs3s1TLbyQFLOtaaaJvV8qyJX5l3VIEYw7w0O+9luVdg4o5BINp3kDGokkUYAggkzFJSSA8CCKQHVWKGIYBAwiwlhfQggEB6UCVmGAIIJMxSUkgPAgikB1VihiGAQMIsJYX0IIBAelAlZhgCCCTMUlJIDwIIpAdVYoYhgEDCLCWF9CCAQHpQJWYYAggkzFJSSA8CCKQHVWKGIYBAwiwlhfQggEB6UCVmGAIIJMxSUkgPAgikB1VihiGAQMIsJYX0IIBAelAlZhgCCCTMUlJIDwKef/sjmoC1o2b/p6pkop3WsL4Esoa3hhUIeAXyWYh1VtcVc5yV6+xx8uwF9M6fj1i9CRN/agIIZOrlI/neBBBIb8LEn5qARyB56kpJHgI7CHgEsiM8QyAwNwEEMvf6Hcm+9uv2I7HDjEUgYZaSQnoQ8Agk90iAmBAYmYBHICPXQW5+AuIf8n4jvALJ74eIit+ZgFcg78wqYu0Ssagza/IK5OvMyYkFgdEJeAWSRy+I/FwErngwVFwZDebsFchg6ZNOAAI5QA3/KOGuV9+0MAzkH6t7/kVtv5w/44kReQc5ESahnhKQp3f/vpkLfUN07RHIzyEyJ4mzCPT8HpIqSYb9pQ8fsWJ9zKxt5Mo+f9otere2T8wnpNU+V9bA0F/fPFczOnujtuyRs+ccJp5oJlcvIPP1ZW4b+ixLGqi2XuYT2gxoDQL9czGyNT1iooNb98WReaYYazAQQEwGaccOtDGt+2FP/B0pHR/yx8EQVujnwRgMH5vA+reWeZWq6PltubbzVrN4qdX51X5HBWL537WJnWAQqBDI2v9R8Rmqe8/fQbYFrF9htn1cQ+BBIOvJVOKwxM94B7E4os3eSTAIPCOQ9eZ04rBCzngHsThZm4ntpzYMAmsCtiemFMe6iDPPkwb7pr09A76bVlSFUN7zhSKUMOxjUW8TncCa2U2b2AkWikDWah4fr+08jF0hkN/Bkt91cH8aAnmaTEkUAhCAAAQgAAEIQAACEIAABCAAAQhAAAIQgAAEIAABCEAAAhCAAAQgAAEIQAACEIAABCAAAQhAAAIQgAAEIBCHwP8BnyJxZ3IIhroAAAAASUVORK5CYII=;" vertex="1" parent="1">
          <mxGeometry x="231" y="844" width="40" height="40" as="geometry" />
        </mxCell>
        <mxCell id="a3eMfUXtKI3ahD6i4PhR-19" value="&lt;font style=&quot;font-size: 16px;&quot;&gt;查询&lt;/font&gt;" style="text;html=1;align=center;verticalAlign=middle;whiteSpace=wrap;rounded=0;" vertex="1" parent="1">
          <mxGeometry x="281" y="202" width="60" height="30" as="geometry" />
        </mxCell>
        <mxCell id="a3eMfUXtKI3ahD6i4PhR-42" style="edgeStyle=orthogonalEdgeStyle;rounded=0;orthogonalLoop=1;jettySize=auto;html=1;exitX=0.5;exitY=1;exitDx=0;exitDy=0;entryX=0.5;entryY=0;entryDx=0;entryDy=0;strokeWidth=2;" edge="1" parent="1" source="a3eMfUXtKI3ahD6i4PhR-22" target="a3eMfUXtKI3ahD6i4PhR-28">
          <mxGeometry relative="1" as="geometry" />
        </mxCell>
        <mxCell id="a3eMfUXtKI3ahD6i4PhR-22" value="&lt;font style=&quot;font-size: 16px;&quot;&gt;相关文档&lt;/font&gt;" style="text;html=1;align=center;verticalAlign=middle;whiteSpace=wrap;rounded=0;" vertex="1" parent="1">
          <mxGeometry x="222" y="378" width="128" height="30" as="geometry" />
        </mxCell>
        <mxCell id="a3eMfUXtKI3ahD6i4PhR-29" value="&lt;font style=&quot;font-size: 16px;&quot; face=&quot;Times New Roman&quot;&gt;LLM&lt;/font&gt;" style="text;html=1;align=center;verticalAlign=middle;whiteSpace=wrap;rounded=0;" vertex="1" parent="1">
          <mxGeometry x="256" y="531" width="60" height="30" as="geometry" />
        </mxCell>
        <mxCell id="a3eMfUXtKI3ahD6i4PhR-30" value="" style="shape=image;verticalLabelPosition=bottom;labelBackgroundColor=default;verticalAlign=top;aspect=fixed;imageAspect=0;image=data:image/png,iVBORw0KGgoAAAANSUhEUgAAAMgAAADICAYAAACtWK6eAAAAAXNSR0IArs4c6QAAAERlWElmTU0AKgAAAAgAAYdpAAQAAAABAAAAGgAAAAAAA6ABAAMAAAABAAEAAKACAAQAAAABAAAAyKADAAQAAAABAAAAyAAAAACbWz2VAAAOSElEQVR4Ae2dCZLbNhBFKTmnssvl8T3i1NzE9k2m4twj40o5t8oo+By1BqQILlgbwGeVBxQXLL/7uRskRZ0GLskU+P2fxwep/HweHi6n4ZN8npSX4XbcZPtpeJ58Nh9Ol+GnbHt5GZ7/+vh0d4zsZxmuwCm8CtYAEAAAlLhB4HL6VHJdYRKACE8coQmIh44A4vRu+DqemhuEo/014Ag0f354+nb09N6PJyAbHiBpUjVAbIwHu43Rv6MkMFBhfSEgC/pMoNAeIRb6f2jTNcIQlmXVCMhVl66gWPYFhJYxHSMsbwJ1DQiheHOEuzXCMkrSJSAAY5xTtJ4+3Xm93wbjJN9xZo+RpStACIYfIHJWj6B0AQjBEBePVwKWHiJK04D88evx22W43q+I5xusyVKgdVCaBIRgWB6cabVVUJoChKlUJhpWmmkNlCYAIRgrHltgFyBp5Vmw6gFhOlWAgJ1NthBNqgWEYOz0UgWH1QxKdYAwnVLg8T5dMHfmL/8N32v7/kpVgDBq+HimrnNqiybVAPLl38e/Bz4aosvbPXtTEyTqAWFK5emFFZx2eRk+a0+5zpp1REp1Og+MHJqNFNA32BY2Dqgi+alqIwhTquS2V9OA5pRLHSBjSoWowaU7BTSmXKpSrFtK1Z1rcMBQQGPKpSaC8BIuIREFNKVcKgAhHOIaLEUBLZAUB4RwiEuwnCugAZKigBCOuUvw81yB0pAUA4SXceeuwM9OBcxzXD/eP3127k+4owgghCOhRVutuhAk2QEhHK16cIZxFYAk630QzDn4wGEGR2q1CfOw6uhDGceXLYJwQp7Rqo03ZZw22yuHsgBCOBr32ALDywVJckAIRwHv6aTJHJAkBYRwdOKpBYeZGpJkgPCp3IJe01nTKZ8CTnYVa/yiU2eG4nDLKJDS15IAgtSqjFRstVcFxvtrCQYfHRDOOxJYiVVuK5DoHknUOQjnHdt25BFpFYg9H4kaQVLmgmllZe2tKHD7NeJIA4oGCOcdkSzCasIUMKlWzPlIFEA47wizKc+OrEDE+UjwHITzjsjGZXXRFIgxHwmOILFzvmjqsKLuFYjhm0GAjPMOE866twQF0KlAhFQrCBD+QKZOv2Cv3hQI9VFvQHjV6s0IXNOtQIivek3SOTHX7RDs3b0CvhN2rwhyPnPecW8CbtGsgO+E/TAgvOeh2Q3YN6cCZsKOzMe537HjMCChkx5HP7iZCiRXwCeKHAIkZLKTfPRsgApsKeBx2fcQIIweWxbgfu0KHPXh3YAwemg3Pfu3V4EjvrwbkKPk7e0sj6MCuRU44su7ADlCXO7Bsj0q4KPA3itav+2p/Ahxe+rjMQ0rYN6fexud4uf0rle03vp66/R0ZfNOOqIHAZmKxk/3ChhHWnwd6Og/p+GTxncy77m7viuC3MvBLVTgqsDGG9f//PD0DUdq/I92TxRZnYNoHNTVLCw0KLABh91FgIIoY28rvr7j7voqIMUHwA7oVeAAHDKIMZrYcxTZUbDcuru+CgjnHgUtp7lpDzhkOJf/6ooiTkCQXsmgWFKBmwIBcKCOvz4+Pd/qqmDFCcgFVx64UAFbgUA47Ko0ra+lWU5ANF6W0yRqd31pFI7RjiuT9UVAmF515/7rA24ZjvWRD4uAML3aUK2n3ZHh2PuIR26JXWnWIiBMr3KbR2l7keHAKNV+XduRZt0BwvRKqbPm7lYCOOBbtd06uAOE6VVuT1TYXgI4kFpph2MpzboDhOmVQofN2aVEcFTx0xgLadYEEKZXOT1RYVs9w+EwxwQQxzHc3IMChGO08jzNmgCiPUfswU+LjJFwOGWfAOI8ijvaVYBwTG1r5iH2hhsgnH/YsnSyTjgWDW3fzLwBsngkN7arAOFw2taeh9wA4f0Pp17t7SAcu216A4T3P3ZrVveBhGPbftY8ZATEzrm2z+YR1SpAOHabTpgYAVH7ANnu4fDATQUIx6ZE9gHCxFuKZe/lelsKEA5ve46AcILurZ/+EwmHl42ECUYQL/kqOYlwBBvqFRBr1h5cIyvQoQDhCLPDlQlGkDAZdZ5NOKLYBVeyznI5K0qNrKS8AoQjqg3Ocjkraq2srIwChCO67kyxoktaqELCEV14BA8CEl3WAhUSjiSi41LvWa73JmmBlaZXgHAk1ZgRJKm8iSsnHIkFNu/xSt5CygaMg+BntPDvx4enE8rxR1rM9pTNqqibcGQxQ50/wQYwzO9MzF+lf/08wlHjS8p2W5xw7JYq9MD6IsjVOeZwzIXArxkhosy3V/+ZcGQ14bm2L0r9eP+02+kBUVOQEI6scICNqiLIOL84KFEzkBCOg5aPc3hVgLy8+E2+q4eEcMTxdo9aqgJka96xNv5qISEca2ZNvq8qQELVqA4SwhFq8uDzuwIEalUDCeEIdu4YFZwHY4gYFeWoI9aj+eohIRw53Gm7DWOH7iKIqKIWEsIhJlJRVgVI7B9hUQcJ4VABhd2JqgBBx7/8+/i3PYDQdTWQEI5QUyY5vzpAcHcz9pvoi0NCOJI4d4xK6wPEjBo/9NMMJIQjhh8nqeN0GX6e8SdJ7YkrbQISwpHYS8KrP/s+vhHedHgNVUNCOMIdIEMNVaZYti5VQkI4bBOqXUfwqB4QqFsVJIRDLRDzjuHizRl/5jtq/FwFJISjOtd6jSDGcNX1fKHDqiEhHAsWU7zpykQTKZYts0pICIdtoqrWR0BqvdTrUloVJITDZSbV24WJ5iKIqK4CEsIh5qi2HAGp+V7ImvJFISEca6ZRv0+YMO9BeF2+/Ho0/tTmgpc94DVAMUeH76Y4ny4mHDGlLlIXXkSIht9SLGPUIj3J0GjWSEI4Mlg0cRMWC2+AJG6zdPVZICEcpc0cpX2ZoKOyGyB4lWeU2hVXkhQSwqHY8v5du81BUEXL8xBbohRzErv+GOurc5wYDbAOpwIy/8ABtwgyHm3lXs6zG9iRIpLElIVwxFQzrK4pIGF1VXW2VkgIR1k3QnZh92ACSA/zEHvw2iAhHLZ1dKxPANHRpby90AIJ4chrd1dr8/tlE0DGR987mYfYApWGhHDY1ii4vuD7E0DQtd7SLDFHKUgIh1igfGnf/5De3AEiO3osc0NCOHR52Ty9Qu/uAOk1zRJT5YKEcIjiSsqF9Ao9uwMEG3tNszB2LKkhIRyvOmv6u5ReoX+LgGjqeKm+pIKEcJSy6Hq7S+kVzlgEpPc0S6SMDQnhEGWVlY70Cr1cBAQ7ek+zoAGWWJAQjlc9Nf51pVfoqxMQjQMp1adQSAhHKcvta9eVXuFsJyBMs6bi+kJCOKY6avs0f/Zq3j8nIDiQadZULh9InF/LnVbNT0oVMACtL+MP1pjf5Fg/qq+9+F9nLSxDDUYO/T6xx46/bQ0DUcT8L/iwdVxP+xFJzJfLvkJgvP1iTEeNAIACOpzeDV/N7H5cx2cu9SqwGUEwNEaReg3MnrsVsL856Drq7Nphb+dcxFaD6y0ogOi/Zxy7Iggq6uX76ntE4zH1K7AnemCUuyIIDtxLHI7lQgU0K3DEl3dHEAyYUUSz2dm3vQrsjR6ob3cEwcFHyMPxXKiANgWO+vChCILB8oqWNpOzP0cUOBI9UO+hCIITeEULKnCpUYGj0QNjPBxBcBKjCFTgUpMCgGPr6Yel8RyOIKiEUWRJSm7TrID83sfRPnoBgkcrfMLV0c7xeCoQQwH4qjwOdLQ+rxRLGuFlX1GCpWYFjk7M7bF4RRCpgFFElGCpVYFQHw2KIBCFE3atrsF+mUtQzz/eP30OUSIogqBhTthD5Oe5KRWI4ZvBgHDCntLErNtXAaRWvhNzu83gFEsqY6olSrAsrQDg8LnnsdTvaICgckKyJDG35VYg5KrVvK/BKZZdYYycz66P61TgqAKXl+Hz0XPWjo8KCOcja1JzX2oFkFrFmHfY/YyaYknFTLVECZa5FAAcseYddp+TAIIGeJfdlpnrqRWIOe+w+xo1xbIrjp0L2nVznQrYCqT0tWSAcD5im5DrqRRIMe+w+5osxZJG/vj1+A0vWpPPLKlALAVSzTvs/iUHBI0REltyrsdQIAcc6GcWQNAQIYEKXGIokAsO9DUbIGiMkEAFLiEK5IQD/cwKCBrkPRKowMVLgQiPrx9tNzsg6CAhOWomHh/jux0+KhYBBB0lJD7m6vScApFDlE52H0QacJX4phfySdd+bqcCUAA+EvqtwBAli0UQ6TQn7qIEy7kCgCPF81XzdtY+FwcEnSMkaybqc58GOKC8CkDQEUICFbhAAS1wXPuixyiERI8tSvVEExzqAEGH+OuwpVyzfLt4Kjf2F55CR6UmxZoPhNFkrkjDnwtext1Stdhl3q2O4eoFwu3WcdxftwKwccnLuFvqqY0g0nGmXKJEY6WJGnjJh7aUaq6yekCkw0y5RIkGSsUp1VxdtSnWvKNMueaK1PlZe0o1V7WaCCIdH1Oud+YbipfhQbaxrECBSlKquZLVASIDYMolSugvETVKPzLiq1K1gMiACYoooa+sGQxRs3pAMBCkXefz8MCXQ4hZC5eVplNLqjUBiAyM0USUKFQ2BIYo2BQgMiiCIkrkK1tIp5bUahIQGShBESXSla2CIYo1DYgMkqCIEpHKBlMplzJdACKDByhY52ReFDlYdgSGKNMVIDJogiJK7Cw7BEOU6RIQGTzKMf06DZ94Z95WxaxfocBW7Q8Uznoe9WP3gNhqdg8LobDdYVwnIHeSvG7oBhZC4fCA180EZFWeN1iw1sTk3gAxjsV8FwNlz+kTxr+1EJAthRb23yb5NcxdLCAIw4IxNzYRkA2B9uyWZ8Fw7AXQjCuZH8e/gnC6DD/R/MvL8EwgRksE/SEgQfJtn2zDg6NvANmnur7bcnV6+1CsAwIAINsJgigRv/wf1KjuYFiHdPgAAAAASUVORK5CYII=;" vertex="1" parent="1">
          <mxGeometry x="185.5" y="726" width="30" height="30" as="geometry" />
        </mxCell>
        <mxCell id="a3eMfUXtKI3ahD6i4PhR-33" value="" style="shape=image;verticalLabelPosition=bottom;labelBackgroundColor=default;verticalAlign=top;aspect=fixed;imageAspect=0;image=data:image/png,iVBORw0KGgoAAAANSUhEUgAAAMgAAADICAYAAACtWK6eAAAAAXNSR0IArs4c6QAAAERlWElmTU0AKgAAAAgAAYdpAAQAAAABAAAAGgAAAAAAA6ABAAMAAAABAAEAAKACAAQAAAABAAAAyKADAAQAAAABAAAAyAAAAACbWz2VAAAKwElEQVR4Ae2cbW7jRhAFvYs1kDPkspYv6zMYyI+N2tZYlMgh55vT3UXAGIkcSux6r9abBMjLS+fjv3//uchP56/h450RMNGr2xB/r6v8IImzEvca10SvnoZAkl5tcfa5JnoVGQJJnJW59bhn9OpXjyGun/l28Lnvrx+fl4M9XIbADwGR4/pmeK+aCpI4RBgaSQIJ1l0CZ/aqmSCZQwQgSBJIsG4SOLtXTQQpHCIAQZJAgvWBwAy9qhakcogABEkCCdYvArP0qkqQRkOESiBJIOF8nalXxYI0HiJUAkkCCafrbL0qEqTTEKESSBJIOFtn7FW2IJ2HCJVAkkDCyTprr7IEGTREqASSBBLG15l7lSzI4CFCJZAkkDC6zt6rJEFOGiJUAkkCCWOrhl4dCnLyEKESSBJIGFm19GpXkEmGCJVAkkBC+aqpV1FBJhsiVAJJAgmlq7ZebQoy6RChEkgSSChbNfZqJcjkQ4RKIEkgoWTV2qsHQZQMESqBJIHE5KvmXv0IomyIUAkkCSQmXbX36ksQpUOESiBJIDHZaqFXv5QPESqBJIHEJKuVXv2ehGftY7zdAqn9HO5vQMCIHF8kLPwVaxkpv0mWNE54bUiOry5p/4f0rQogyRaVAeesySHIfgSRNxYHlLk4+hOw2p0HQQSj1UH7V8TvN1juzEoQJPFb9JLJLcshPDYFkQvWB5cZOeoIeOhIVBBB5wFAXUX83u2lG7uCIIlfAfYm9yKHMDgURDZ5AiLzcsQJeOtCkiCCyxuYeEX8XvHYgWRBkMSvGJ6zzxLEMyjPenj8zRHyzhYESQI6H6tnOSThIkHkRu/ghIH1g4wrBJFyANCuImT7nW3xb5BQDUAGEnZWMr1nWS2IfBRA70C1vyLLxwSbCCIfCdhHsBrfkeE6tWaCyEcDeA1Yyxmy206qqSDyFYDeBj3zWTKLp9NcEPkqgMeBz3aFrPYT6SKIfCXg98HPcJWMjlPoJoh8NQEcB3DWDrJJI99VEHkEgkgLYuQuMkmn3V0QeRQCSQ+k906yyCM8RBB5JILJC6bHbjLIpzpMEHk0AsoPqNUdsC8jOVQQeUSCKguq5i6Yl9MbLog8KoGVB5Z7J6xziT3uP0UQeQSCewyixzsY11M9TRB5dAKsDzD2CbCNkck7f6og8qgEmRdYym6YplBK23O6IPKYBJoWVsouWKZQSt8zhSDyuASbHlpsJwxjZMrPTyOIjEDA5UHCrpzd3p1TCSIPStB7cW1fg9k2lxZnpxNEhiLw9Ghhlc6qZOeUgsggBH8cJ4yOGdXumFYQGYwCxOOFTZxNyytTCyKDUoR13DBZM+l1ZnpBZHAKcY8fFncWI16pEERAUAwYjBDi+TvUCOJdEv6AeK7umPeqBPEqCXKMkWHrW9QJ4k0S5Niq7bhzKgXxIglyjBMh9k1qBbEuCXLEKjv2vGpBrEqCHGMl2Ps29YJYk+QW1tteaEquvb9+fF6UPGv0MU0IItMZ+lM3GpaiCybkEN5mBJFhkEQonH6YkUNImhJEBkISoXDaYUoOoWhOEBkKSYTC8MOcHELQpCAyGJIIhWGHSTmEnllBZDgkEQrdD7NyCDnTgsiASCIUuh2m5RBq5gWRIZFEKDQ/zMshxFwIIoMiiVBodriQQ2i5EUSGRRKhUH24kUNIuRJEBkYSoVB8uJJDKLkTRIZGEqGQfbiTQwi5FEQGRxKhkHy4lEPouBVEhkcSoXB4uJVDyLgWRAAgiVCIHq7lECruBREISCIUVod7OYQIgtx6gSQPgiDHDQeCLHqBJF8wkGPRCQRZwJCXziVBjqc+IMgTEMeSIMdGFxBkA4pDSZAj0gMEiYBxJAly7HQAQXbgOJAEOQ7yR5ADQIYlQY6E7BEkAZJBSZAjMfffifvYBgGXBPgNkhC70f82wm+RhOwR5ACSUTnC1EgSSERWBImAkdPG5QiTI0kgsbEiyAYUOeVEjjA9kgQSTyuCPAGRt87kCASQJJBYrAiygCEvncoRKCBJIHFbEWQBxLkcgQSSBBLXFUFuMJBj0YqXFyS54UCQKwjkeJAjvEGSKwn3giBH8GFzdS+Ja0GQY1OK55OuJXErCHI8e7D73q0kLgVBjl0ZYhddSuJOEOSI9T/pvDtJXAmCHEkSHG1yJYkbQZDjqPdZ191I4kIQ5Mgqf+pmF5KYFwQ5UvtetM+8JKYFQY6i0ufeZFoSs4IgR27Pq/ablcSkIMhRVfbSm01KYk4Q5Cjtd5P7zEliShDkaFLy2g8xJYkZQZCjttdN7zcjiQlBDMnxfqvpW9O6nvNhJiT5cw67dt9qSY7Xj8+LkLnOJIt2Sd5kjjCTDKTxUP0bxKIcoUSWZwszaljVCuKhQB5mnF0SlYJ4Ko6nWWeURZ0gHgvjceZZZFEliOeieJ79TFnUCEJBTP3vidT8K2AVgiDH/c9QWNxZjHg1vSAUYl0DmKyZ9DoztSAUIR47bOJsWl6ZVhAKcBwzjI4Z1e6YUhCCT48VVumsSnZOJwiB58cIs3xmqXdMJQhBp8a23ge7NZMWZ6YRhIDr44RhPcPnT5hCEIJ9jqX8PSzL2W3debogBLoVS905mNbxW959qiAEuYyi7WvYtuF5miAE2CbAvU+B8R6dtGunCEJwaeG02AXrOorDBSGwusBK7oZ5CbXve4YKQlDlQdXeCfsygsMEIaCygFreRQb5NIcIQjD5wfS6gyzyyHYXhEDyAhmxm0zSKXcVhCDSgxi9k2zSiHcThADSAjhzFxkd0+8iCOCPwc+yg6z2k2guCMD3gc94lcziqTQVBNBx0LNfIbvthJoJAuBtwJrOkuE6rSaCAHYNVusZsnxMrloQgD4CtfCOTO8pVgkCyDtIa6/I9jvRYkEAaE2J9Txk/PJSJAjg1mWyesZ71tmCeAdmVYS9uTxnniWIZ1B7BfJwzWv2yYJ4BeSh/KkzeuxAkiAewaSWxts+b104FMQbEG+FL5nXUyd2BfEEoqQonu/x0o2oIF4AeC557eweOrIpiIfBa8vB/d8ErHdlJYj1gSl2ewKWO/MgiOVB29eCT1wSsNqdH0GsDrgMkdd9CVjs0JcgFgfrWwU+PUbAWpd+WRsoFhznxxGw1Knf47B1/ab314/PS9dv4MOTCdyyeE++YeKNFv6KhRyTFkz5b5KvXmn/h3TkmFSO8FhKJfnp1Y8gMpCyYX6GCGGwzklAc68eBBG8SoZBjjldiD6V1l6tBFEgCXJEazj3hckl2ezVpiATS7I5xNy14OmWBCaVJNqrqCATShIdYhkAr+cnMJkku73aFWQiSXaHmL8SPOEzgUkkOezVoSATSHI4xDN83usgcLIkSb1KEuRESZKG0FEHnnKLwEmSJPcqWZATJEkeYgs85/QQGCxJVq+yBBkoSdYQeqrAk8YIDJIku1fZggyQJHuIGHTO6yLQWZKiXhUJ0lGSoiF01YCn3SPQSZLiXhUL0kGS4iH2gHNNH4HGklT1qkqQhpJUDaGvAjzxEYFGklT3qlqQBpJUD3EEm+s6CVRK0qRXTQSpkKTJEDrj56lTCBRK0qxXzQQpkKTZECmg2aOXQKYkTXvVVJAMSZoOoTd6njyVQKIkOnolw1x//kZ+LqlQ2AeBJQFTvYoMc1kOzGsI5BIw1aunYS65MNgPgS0Cpnp1G+ayNSjnIFBKYFSv/gcGqATlmlNviwAAAABJRU5ErkJggg==;" vertex="1" parent="1">
          <mxGeometry x="249" y="727" width="24" height="24" as="geometry" />
        </mxCell>
        <mxCell id="a3eMfUXtKI3ahD6i4PhR-34" value="" style="shape=image;verticalLabelPosition=bottom;labelBackgroundColor=default;verticalAlign=top;aspect=fixed;imageAspect=0;image=data:image/png,iVBORw0KGgoAAAANSUhEUgAAAMgAAADICAYAAACtWK6eAAAAAXNSR0IArs4c6QAAAERlWElmTU0AKgAAAAgAAYdpAAQAAAABAAAAGgAAAAAAA6ABAAMAAAABAAEAAKACAAQAAAABAAAAyKADAAQAAAABAAAAyAAAAACbWz2VAAAOSElEQVR4Ae2dCZLbNhBFKTmnssvl8T3i1NzE9k2m4twj40o5t8oo+By1BqQILlgbwGeVBxQXLL/7uRskRZ0GLskU+P2fxwep/HweHi6n4ZN8npSX4XbcZPtpeJ58Nh9Ol+GnbHt5GZ7/+vh0d4zsZxmuwCm8CtYAEAAAlLhB4HL6VHJdYRKACE8coQmIh44A4vRu+DqemhuEo/014Ag0f354+nb09N6PJyAbHiBpUjVAbIwHu43Rv6MkMFBhfSEgC/pMoNAeIRb6f2jTNcIQlmXVCMhVl66gWPYFhJYxHSMsbwJ1DQiheHOEuzXCMkrSJSAAY5xTtJ4+3Xm93wbjJN9xZo+RpStACIYfIHJWj6B0AQjBEBePVwKWHiJK04D88evx22W43q+I5xusyVKgdVCaBIRgWB6cabVVUJoChKlUJhpWmmkNlCYAIRgrHltgFyBp5Vmw6gFhOlWAgJ1NthBNqgWEYOz0UgWH1QxKdYAwnVLg8T5dMHfmL/8N32v7/kpVgDBq+HimrnNqiybVAPLl38e/Bz4aosvbPXtTEyTqAWFK5emFFZx2eRk+a0+5zpp1REp1Og+MHJqNFNA32BY2Dqgi+alqIwhTquS2V9OA5pRLHSBjSoWowaU7BTSmXKpSrFtK1Z1rcMBQQGPKpSaC8BIuIREFNKVcKgAhHOIaLEUBLZAUB4RwiEuwnCugAZKigBCOuUvw81yB0pAUA4SXceeuwM9OBcxzXD/eP3127k+4owgghCOhRVutuhAk2QEhHK16cIZxFYAk630QzDn4wGEGR2q1CfOw6uhDGceXLYJwQp7Rqo03ZZw22yuHsgBCOBr32ALDywVJckAIRwHv6aTJHJAkBYRwdOKpBYeZGpJkgPCp3IJe01nTKZ8CTnYVa/yiU2eG4nDLKJDS15IAgtSqjFRstVcFxvtrCQYfHRDOOxJYiVVuK5DoHknUOQjnHdt25BFpFYg9H4kaQVLmgmllZe2tKHD7NeJIA4oGCOcdkSzCasIUMKlWzPlIFEA47wizKc+OrEDE+UjwHITzjsjGZXXRFIgxHwmOILFzvmjqsKLuFYjhm0GAjPMOE866twQF0KlAhFQrCBD+QKZOv2Cv3hQI9VFvQHjV6s0IXNOtQIivek3SOTHX7RDs3b0CvhN2rwhyPnPecW8CbtGsgO+E/TAgvOeh2Q3YN6cCZsKOzMe537HjMCChkx5HP7iZCiRXwCeKHAIkZLKTfPRsgApsKeBx2fcQIIweWxbgfu0KHPXh3YAwemg3Pfu3V4EjvrwbkKPk7e0sj6MCuRU44su7ADlCXO7Bsj0q4KPA3itav+2p/Ahxe+rjMQ0rYN6fexud4uf0rle03vp66/R0ZfNOOqIHAZmKxk/3ChhHWnwd6Og/p+GTxncy77m7viuC3MvBLVTgqsDGG9f//PD0DUdq/I92TxRZnYNoHNTVLCw0KLABh91FgIIoY28rvr7j7voqIMUHwA7oVeAAHDKIMZrYcxTZUbDcuru+CgjnHgUtp7lpDzhkOJf/6ooiTkCQXsmgWFKBmwIBcKCOvz4+Pd/qqmDFCcgFVx64UAFbgUA47Ko0ra+lWU5ANF6W0yRqd31pFI7RjiuT9UVAmF515/7rA24ZjvWRD4uAML3aUK2n3ZHh2PuIR26JXWnWIiBMr3KbR2l7keHAKNV+XduRZt0BwvRKqbPm7lYCOOBbtd06uAOE6VVuT1TYXgI4kFpph2MpzboDhOmVQofN2aVEcFTx0xgLadYEEKZXOT1RYVs9w+EwxwQQxzHc3IMChGO08jzNmgCiPUfswU+LjJFwOGWfAOI8ijvaVYBwTG1r5iH2hhsgnH/YsnSyTjgWDW3fzLwBsngkN7arAOFw2taeh9wA4f0Pp17t7SAcu216A4T3P3ZrVveBhGPbftY8ZATEzrm2z+YR1SpAOHabTpgYAVH7ANnu4fDATQUIx6ZE9gHCxFuKZe/lelsKEA5ve46AcILurZ/+EwmHl42ECUYQL/kqOYlwBBvqFRBr1h5cIyvQoQDhCLPDlQlGkDAZdZ5NOKLYBVeyznI5K0qNrKS8AoQjqg3Ocjkraq2srIwChCO67kyxoktaqELCEV14BA8CEl3WAhUSjiSi41LvWa73JmmBlaZXgHAk1ZgRJKm8iSsnHIkFNu/xSt5CygaMg+BntPDvx4enE8rxR1rM9pTNqqibcGQxQ50/wQYwzO9MzF+lf/08wlHjS8p2W5xw7JYq9MD6IsjVOeZwzIXArxkhosy3V/+ZcGQ14bm2L0r9eP+02+kBUVOQEI6scICNqiLIOL84KFEzkBCOg5aPc3hVgLy8+E2+q4eEcMTxdo9aqgJka96xNv5qISEca2ZNvq8qQELVqA4SwhFq8uDzuwIEalUDCeEIdu4YFZwHY4gYFeWoI9aj+eohIRw53Gm7DWOH7iKIqKIWEsIhJlJRVgVI7B9hUQcJ4VABhd2JqgBBx7/8+/i3PYDQdTWQEI5QUyY5vzpAcHcz9pvoi0NCOJI4d4xK6wPEjBo/9NMMJIQjhh8nqeN0GX6e8SdJ7YkrbQISwpHYS8KrP/s+vhHedHgNVUNCOMIdIEMNVaZYti5VQkI4bBOqXUfwqB4QqFsVJIRDLRDzjuHizRl/5jtq/FwFJISjOtd6jSDGcNX1fKHDqiEhHAsWU7zpykQTKZYts0pICIdtoqrWR0BqvdTrUloVJITDZSbV24WJ5iKIqK4CEsIh5qi2HAGp+V7ImvJFISEca6ZRv0+YMO9BeF2+/Ho0/tTmgpc94DVAMUeH76Y4ny4mHDGlLlIXXkSIht9SLGPUIj3J0GjWSEI4Mlg0cRMWC2+AJG6zdPVZICEcpc0cpX2ZoKOyGyB4lWeU2hVXkhQSwqHY8v5du81BUEXL8xBbohRzErv+GOurc5wYDbAOpwIy/8ABtwgyHm3lXs6zG9iRIpLElIVwxFQzrK4pIGF1VXW2VkgIR1k3QnZh92ACSA/zEHvw2iAhHLZ1dKxPANHRpby90AIJ4chrd1dr8/tlE0DGR987mYfYApWGhHDY1ii4vuD7E0DQtd7SLDFHKUgIh1igfGnf/5De3AEiO3osc0NCOHR52Ty9Qu/uAOk1zRJT5YKEcIjiSsqF9Ao9uwMEG3tNszB2LKkhIRyvOmv6u5ReoX+LgGjqeKm+pIKEcJSy6Hq7S+kVzlgEpPc0S6SMDQnhEGWVlY70Cr1cBAQ7ek+zoAGWWJAQjlc9Nf51pVfoqxMQjQMp1adQSAhHKcvta9eVXuFsJyBMs6bi+kJCOKY6avs0f/Zq3j8nIDiQadZULh9InF/LnVbNT0oVMACtL+MP1pjf5Fg/qq+9+F9nLSxDDUYO/T6xx46/bQ0DUcT8L/iwdVxP+xFJzJfLvkJgvP1iTEeNAIACOpzeDV/N7H5cx2cu9SqwGUEwNEaReg3MnrsVsL856Drq7Nphb+dcxFaD6y0ogOi/Zxy7Iggq6uX76ntE4zH1K7AnemCUuyIIDtxLHI7lQgU0K3DEl3dHEAyYUUSz2dm3vQrsjR6ob3cEwcFHyMPxXKiANgWO+vChCILB8oqWNpOzP0cUOBI9UO+hCIITeEULKnCpUYGj0QNjPBxBcBKjCFTgUpMCgGPr6Yel8RyOIKiEUWRJSm7TrID83sfRPnoBgkcrfMLV0c7xeCoQQwH4qjwOdLQ+rxRLGuFlX1GCpWYFjk7M7bF4RRCpgFFElGCpVYFQHw2KIBCFE3atrsF+mUtQzz/eP30OUSIogqBhTthD5Oe5KRWI4ZvBgHDCntLErNtXAaRWvhNzu83gFEsqY6olSrAsrQDg8LnnsdTvaICgckKyJDG35VYg5KrVvK/BKZZdYYycz66P61TgqAKXl+Hz0XPWjo8KCOcja1JzX2oFkFrFmHfY/YyaYknFTLVECZa5FAAcseYddp+TAIIGeJfdlpnrqRWIOe+w+xo1xbIrjp0L2nVznQrYCqT0tWSAcD5im5DrqRRIMe+w+5osxZJG/vj1+A0vWpPPLKlALAVSzTvs/iUHBI0REltyrsdQIAcc6GcWQNAQIYEKXGIokAsO9DUbIGiMkEAFLiEK5IQD/cwKCBrkPRKowMVLgQiPrx9tNzsg6CAhOWomHh/jux0+KhYBBB0lJD7m6vScApFDlE52H0QacJX4phfySdd+bqcCUAA+EvqtwBAli0UQ6TQn7qIEy7kCgCPF81XzdtY+FwcEnSMkaybqc58GOKC8CkDQEUICFbhAAS1wXPuixyiERI8tSvVEExzqAEGH+OuwpVyzfLt4Kjf2F55CR6UmxZoPhNFkrkjDnwtext1Stdhl3q2O4eoFwu3WcdxftwKwccnLuFvqqY0g0nGmXKJEY6WJGnjJh7aUaq6yekCkw0y5RIkGSsUp1VxdtSnWvKNMueaK1PlZe0o1V7WaCCIdH1Oud+YbipfhQbaxrECBSlKquZLVASIDYMolSugvETVKPzLiq1K1gMiACYoooa+sGQxRs3pAMBCkXefz8MCXQ4hZC5eVplNLqjUBiAyM0USUKFQ2BIYo2BQgMiiCIkrkK1tIp5bUahIQGShBESXSla2CIYo1DYgMkqCIEpHKBlMplzJdACKDByhY52ReFDlYdgSGKNMVIDJogiJK7Cw7BEOU6RIQGTzKMf06DZ94Z95WxaxfocBW7Q8Uznoe9WP3gNhqdg8LobDdYVwnIHeSvG7oBhZC4fCA180EZFWeN1iw1sTk3gAxjsV8FwNlz+kTxr+1EJAthRb23yb5NcxdLCAIw4IxNzYRkA2B9uyWZ8Fw7AXQjCuZH8e/gnC6DD/R/MvL8EwgRksE/SEgQfJtn2zDg6NvANmnur7bcnV6+1CsAwIAINsJgigRv/wf1KjuYFiHdPgAAAAASUVORK5CYII=;" vertex="1" parent="1">
          <mxGeometry x="306" y="726" width="30" height="30" as="geometry" />
        </mxCell>
        <mxCell id="a3eMfUXtKI3ahD6i4PhR-35" value="" style="shape=image;verticalLabelPosition=bottom;labelBackgroundColor=default;verticalAlign=top;aspect=fixed;imageAspect=0;image=data:image/png,iVBORw0KGgoAAAANSUhEUgAAAMgAAADICAYAAACtWK6eAAAAAXNSR0IArs4c6QAAAERlWElmTU0AKgAAAAgAAYdpAAQAAAABAAAAGgAAAAAAA6ABAAMAAAABAAEAAKACAAQAAAABAAAAyKADAAQAAAABAAAAyAAAAACbWz2VAAAOSElEQVR4Ae2dCZLbNhBFKTmnssvl8T3i1NzE9k2m4twj40o5t8oo+By1BqQILlgbwGeVBxQXLL/7uRskRZ0GLskU+P2fxwep/HweHi6n4ZN8npSX4XbcZPtpeJ58Nh9Ol+GnbHt5GZ7/+vh0d4zsZxmuwCm8CtYAEAAAlLhB4HL6VHJdYRKACE8coQmIh44A4vRu+DqemhuEo/014Ag0f354+nb09N6PJyAbHiBpUjVAbIwHu43Rv6MkMFBhfSEgC/pMoNAeIRb6f2jTNcIQlmXVCMhVl66gWPYFhJYxHSMsbwJ1DQiheHOEuzXCMkrSJSAAY5xTtJ4+3Xm93wbjJN9xZo+RpStACIYfIHJWj6B0AQjBEBePVwKWHiJK04D88evx22W43q+I5xusyVKgdVCaBIRgWB6cabVVUJoChKlUJhpWmmkNlCYAIRgrHltgFyBp5Vmw6gFhOlWAgJ1NthBNqgWEYOz0UgWH1QxKdYAwnVLg8T5dMHfmL/8N32v7/kpVgDBq+HimrnNqiybVAPLl38e/Bz4aosvbPXtTEyTqAWFK5emFFZx2eRk+a0+5zpp1REp1Og+MHJqNFNA32BY2Dqgi+alqIwhTquS2V9OA5pRLHSBjSoWowaU7BTSmXKpSrFtK1Z1rcMBQQGPKpSaC8BIuIREFNKVcKgAhHOIaLEUBLZAUB4RwiEuwnCugAZKigBCOuUvw81yB0pAUA4SXceeuwM9OBcxzXD/eP3127k+4owgghCOhRVutuhAk2QEhHK16cIZxFYAk630QzDn4wGEGR2q1CfOw6uhDGceXLYJwQp7Rqo03ZZw22yuHsgBCOBr32ALDywVJckAIRwHv6aTJHJAkBYRwdOKpBYeZGpJkgPCp3IJe01nTKZ8CTnYVa/yiU2eG4nDLKJDS15IAgtSqjFRstVcFxvtrCQYfHRDOOxJYiVVuK5DoHknUOQjnHdt25BFpFYg9H4kaQVLmgmllZe2tKHD7NeJIA4oGCOcdkSzCasIUMKlWzPlIFEA47wizKc+OrEDE+UjwHITzjsjGZXXRFIgxHwmOILFzvmjqsKLuFYjhm0GAjPMOE866twQF0KlAhFQrCBD+QKZOv2Cv3hQI9VFvQHjV6s0IXNOtQIivek3SOTHX7RDs3b0CvhN2rwhyPnPecW8CbtGsgO+E/TAgvOeh2Q3YN6cCZsKOzMe537HjMCChkx5HP7iZCiRXwCeKHAIkZLKTfPRsgApsKeBx2fcQIIweWxbgfu0KHPXh3YAwemg3Pfu3V4EjvrwbkKPk7e0sj6MCuRU44su7ADlCXO7Bsj0q4KPA3itav+2p/Ahxe+rjMQ0rYN6fexud4uf0rle03vp66/R0ZfNOOqIHAZmKxk/3ChhHWnwd6Og/p+GTxncy77m7viuC3MvBLVTgqsDGG9f//PD0DUdq/I92TxRZnYNoHNTVLCw0KLABh91FgIIoY28rvr7j7voqIMUHwA7oVeAAHDKIMZrYcxTZUbDcuru+CgjnHgUtp7lpDzhkOJf/6ooiTkCQXsmgWFKBmwIBcKCOvz4+Pd/qqmDFCcgFVx64UAFbgUA47Ko0ra+lWU5ANF6W0yRqd31pFI7RjiuT9UVAmF515/7rA24ZjvWRD4uAML3aUK2n3ZHh2PuIR26JXWnWIiBMr3KbR2l7keHAKNV+XduRZt0BwvRKqbPm7lYCOOBbtd06uAOE6VVuT1TYXgI4kFpph2MpzboDhOmVQofN2aVEcFTx0xgLadYEEKZXOT1RYVs9w+EwxwQQxzHc3IMChGO08jzNmgCiPUfswU+LjJFwOGWfAOI8ijvaVYBwTG1r5iH2hhsgnH/YsnSyTjgWDW3fzLwBsngkN7arAOFw2taeh9wA4f0Pp17t7SAcu216A4T3P3ZrVveBhGPbftY8ZATEzrm2z+YR1SpAOHabTpgYAVH7ANnu4fDATQUIx6ZE9gHCxFuKZe/lelsKEA5ve46AcILurZ/+EwmHl42ECUYQL/kqOYlwBBvqFRBr1h5cIyvQoQDhCLPDlQlGkDAZdZ5NOKLYBVeyznI5K0qNrKS8AoQjqg3Ocjkraq2srIwChCO67kyxoktaqELCEV14BA8CEl3WAhUSjiSi41LvWa73JmmBlaZXgHAk1ZgRJKm8iSsnHIkFNu/xSt5CygaMg+BntPDvx4enE8rxR1rM9pTNqqibcGQxQ50/wQYwzO9MzF+lf/08wlHjS8p2W5xw7JYq9MD6IsjVOeZwzIXArxkhosy3V/+ZcGQ14bm2L0r9eP+02+kBUVOQEI6scICNqiLIOL84KFEzkBCOg5aPc3hVgLy8+E2+q4eEcMTxdo9aqgJka96xNv5qISEca2ZNvq8qQELVqA4SwhFq8uDzuwIEalUDCeEIdu4YFZwHY4gYFeWoI9aj+eohIRw53Gm7DWOH7iKIqKIWEsIhJlJRVgVI7B9hUQcJ4VABhd2JqgBBx7/8+/i3PYDQdTWQEI5QUyY5vzpAcHcz9pvoi0NCOJI4d4xK6wPEjBo/9NMMJIQjhh8nqeN0GX6e8SdJ7YkrbQISwpHYS8KrP/s+vhHedHgNVUNCOMIdIEMNVaZYti5VQkI4bBOqXUfwqB4QqFsVJIRDLRDzjuHizRl/5jtq/FwFJISjOtd6jSDGcNX1fKHDqiEhHAsWU7zpykQTKZYts0pICIdtoqrWR0BqvdTrUloVJITDZSbV24WJ5iKIqK4CEsIh5qi2HAGp+V7ImvJFISEca6ZRv0+YMO9BeF2+/Ho0/tTmgpc94DVAMUeH76Y4ny4mHDGlLlIXXkSIht9SLGPUIj3J0GjWSEI4Mlg0cRMWC2+AJG6zdPVZICEcpc0cpX2ZoKOyGyB4lWeU2hVXkhQSwqHY8v5du81BUEXL8xBbohRzErv+GOurc5wYDbAOpwIy/8ABtwgyHm3lXs6zG9iRIpLElIVwxFQzrK4pIGF1VXW2VkgIR1k3QnZh92ACSA/zEHvw2iAhHLZ1dKxPANHRpby90AIJ4chrd1dr8/tlE0DGR987mYfYApWGhHDY1ii4vuD7E0DQtd7SLDFHKUgIh1igfGnf/5De3AEiO3osc0NCOHR52Ty9Qu/uAOk1zRJT5YKEcIjiSsqF9Ao9uwMEG3tNszB2LKkhIRyvOmv6u5ReoX+LgGjqeKm+pIKEcJSy6Hq7S+kVzlgEpPc0S6SMDQnhEGWVlY70Cr1cBAQ7ek+zoAGWWJAQjlc9Nf51pVfoqxMQjQMp1adQSAhHKcvta9eVXuFsJyBMs6bi+kJCOKY6avs0f/Zq3j8nIDiQadZULh9InF/LnVbNT0oVMACtL+MP1pjf5Fg/qq+9+F9nLSxDDUYO/T6xx46/bQ0DUcT8L/iwdVxP+xFJzJfLvkJgvP1iTEeNAIACOpzeDV/N7H5cx2cu9SqwGUEwNEaReg3MnrsVsL856Drq7Nphb+dcxFaD6y0ogOi/Zxy7Iggq6uX76ntE4zH1K7AnemCUuyIIDtxLHI7lQgU0K3DEl3dHEAyYUUSz2dm3vQrsjR6ob3cEwcFHyMPxXKiANgWO+vChCILB8oqWNpOzP0cUOBI9UO+hCIITeEULKnCpUYGj0QNjPBxBcBKjCFTgUpMCgGPr6Yel8RyOIKiEUWRJSm7TrID83sfRPnoBgkcrfMLV0c7xeCoQQwH4qjwOdLQ+rxRLGuFlX1GCpWYFjk7M7bF4RRCpgFFElGCpVYFQHw2KIBCFE3atrsF+mUtQzz/eP30OUSIogqBhTthD5Oe5KRWI4ZvBgHDCntLErNtXAaRWvhNzu83gFEsqY6olSrAsrQDg8LnnsdTvaICgckKyJDG35VYg5KrVvK/BKZZdYYycz66P61TgqAKXl+Hz0XPWjo8KCOcja1JzX2oFkFrFmHfY/YyaYknFTLVECZa5FAAcseYddp+TAIIGeJfdlpnrqRWIOe+w+xo1xbIrjp0L2nVznQrYCqT0tWSAcD5im5DrqRRIMe+w+5osxZJG/vj1+A0vWpPPLKlALAVSzTvs/iUHBI0REltyrsdQIAcc6GcWQNAQIYEKXGIokAsO9DUbIGiMkEAFLiEK5IQD/cwKCBrkPRKowMVLgQiPrx9tNzsg6CAhOWomHh/jux0+KhYBBB0lJD7m6vScApFDlE52H0QacJX4phfySdd+bqcCUAA+EvqtwBAli0UQ6TQn7qIEy7kCgCPF81XzdtY+FwcEnSMkaybqc58GOKC8CkDQEUICFbhAAS1wXPuixyiERI8tSvVEExzqAEGH+OuwpVyzfLt4Kjf2F55CR6UmxZoPhNFkrkjDnwtext1Stdhl3q2O4eoFwu3WcdxftwKwccnLuFvqqY0g0nGmXKJEY6WJGnjJh7aUaq6yekCkw0y5RIkGSsUp1VxdtSnWvKNMueaK1PlZe0o1V7WaCCIdH1Oud+YbipfhQbaxrECBSlKquZLVASIDYMolSugvETVKPzLiq1K1gMiACYoooa+sGQxRs3pAMBCkXefz8MCXQ4hZC5eVplNLqjUBiAyM0USUKFQ2BIYo2BQgMiiCIkrkK1tIp5bUahIQGShBESXSla2CIYo1DYgMkqCIEpHKBlMplzJdACKDByhY52ReFDlYdgSGKNMVIDJogiJK7Cw7BEOU6RIQGTzKMf06DZ94Z95WxaxfocBW7Q8Uznoe9WP3gNhqdg8LobDdYVwnIHeSvG7oBhZC4fCA180EZFWeN1iw1sTk3gAxjsV8FwNlz+kTxr+1EJAthRb23yb5NcxdLCAIw4IxNzYRkA2B9uyWZ8Fw7AXQjCuZH8e/gnC6DD/R/MvL8EwgRksE/SEgQfJtn2zDg6NvANmnur7bcnV6+1CsAwIAINsJgigRv/wf1KjuYFiHdPgAAAAASUVORK5CYII=;" vertex="1" parent="1">
          <mxGeometry x="363" y="727" width="30" height="30" as="geometry" />
        </mxCell>
        <mxCell id="a3eMfUXtKI3ahD6i4PhR-36" value="&lt;font style=&quot;font-size: 16px;&quot;&gt;RAG分数：&lt;/font&gt;" style="text;html=1;align=center;verticalAlign=middle;whiteSpace=wrap;rounded=0;" vertex="1" parent="1">
          <mxGeometry x="263" y="837" width="110" height="29" as="geometry" />
        </mxCell>
        <mxCell id="a3eMfUXtKI3ahD6i4PhR-37" value="&lt;font style=&quot;font-size: 16px;&quot;&gt;0.92&lt;/font&gt;" style="text;html=1;align=center;verticalAlign=middle;whiteSpace=wrap;rounded=0;" vertex="1" parent="1">
          <mxGeometry x="276.5" y="858" width="60" height="30" as="geometry" />
        </mxCell>
        <mxCell id="a3eMfUXtKI3ahD6i4PhR-46" value="" style="shape=callout;whiteSpace=wrap;html=1;perimeter=calloutPerimeter;strokeWidth=2;" vertex="1" parent="1">
          <mxGeometry x="341.5" y="417" width="162" height="90" as="geometry" />
        </mxCell>
        <mxCell id="a3eMfUXtKI3ahD6i4PhR-47" value="&lt;font style=&quot;font-size: 16px;&quot;&gt;判定检索的文档是否与给定的查询相关&lt;/font&gt;" style="text;html=1;align=left;verticalAlign=middle;whiteSpace=wrap;rounded=0;" vertex="1" parent="1">
          <mxGeometry x="349" y="434" width="147" height="30" as="geometry" />
        </mxCell>
      </root>
    </mxGraphModel>
  </diagram>
</mxfile>
